<mxfile host="65bd71144e">
    <diagram id="YgtpYwlesnJ4A1Gga4Wa" name="Page-1">
        <mxGraphModel dx="2642" dy="2963" grid="1" gridSize="10" guides="1" tooltips="1" connect="1" arrows="1" fold="1" page="1" pageScale="1" pageWidth="1920" pageHeight="1200" math="0" shadow="0">
            <root>
                <mxCell id="0"/>
                <mxCell id="1" parent="0"/>
                <mxCell id="2" value="" style="rounded=0;whiteSpace=wrap;html=1;strokeWidth=2;fillColor=none;fontColor=#ffffff;strokeColor=#006EAF;movable=1;resizable=1;rotatable=1;deletable=1;editable=1;connectable=1;fontSize=13;" vertex="1" parent="1">
                    <mxGeometry x="1026" y="-827" width="289" height="207.06" as="geometry"/>
                </mxCell>
                <mxCell id="3" value="" style="endArrow=none;html=1;strokeWidth=2;fillColor=#60a917;strokeColor=#2D7600;exitX=1;exitY=0.5;exitDx=0;exitDy=0;fontSize=13;" edge="1" parent="1" source="46">
                    <mxGeometry width="50" height="50" relative="1" as="geometry">
                        <mxPoint x="155" y="-876.0000000000001" as="sourcePoint"/>
                        <mxPoint x="333" y="-876" as="targetPoint"/>
                    </mxGeometry>
                </mxCell>
                <mxCell id="4" value="" style="verticalLabelPosition=bottom;align=center;html=1;verticalAlign=top;pointerEvents=1;dashed=0;shape=mxgraph.pid2valves.valve;valveType=gate;actuator=man;rounded=1;strokeColor=#2D7600;strokeWidth=2;fontFamily=Helvetica;fontSize=13;fontColor=#ffffff;fillColor=#60a917;flipV=1;container=0;movable=1;resizable=1;rotatable=1;deletable=1;editable=1;connectable=1;direction=west;flipH=1;" vertex="1" parent="1">
                    <mxGeometry x="250" y="-904.88" width="48" height="42" as="geometry"/>
                </mxCell>
                <mxCell id="5" value="" style="endArrow=none;html=1;fontFamily=Helvetica;fontSize=13;fontColor=rgb(240, 240, 240);exitX=0.47;exitY=0;exitDx=0;exitDy=0;exitPerimeter=0;fillColor=#1ba1e2;strokeColor=#006EAF;movable=1;resizable=1;rotatable=1;deletable=1;editable=1;connectable=1;strokeWidth=2;" edge="1" parent="1" source="15">
                    <mxGeometry width="50" height="50" relative="1" as="geometry">
                        <mxPoint x="538.4100000000001" y="-715" as="sourcePoint"/>
                        <mxPoint x="617" y="-725" as="targetPoint"/>
                    </mxGeometry>
                </mxCell>
                <mxCell id="6" value="" style="rounded=1;arcSize=50;whiteSpace=wrap;html=1;perimeterSpacing=1;strokeWidth=2;flipV=0;flipH=0;direction=east;container=0;fillColor=#1ba1e2;strokeColor=#006EAF;movable=1;resizable=1;rotatable=1;deletable=1;editable=1;connectable=1;fontColor=#ffffff;fontSize=13;" vertex="1" parent="1">
                    <mxGeometry x="509" y="-852" width="96" height="48" as="geometry"/>
                </mxCell>
                <mxCell id="7" value="" style="verticalLabelPosition=bottom;aspect=fixed;html=1;verticalAlign=top;fillColor=#60a917;align=center;outlineConnect=0;shape=mxgraph.fluid_power.x10710;points=[[0.5,0,0],[0.5,1,0]];rounded=1;strokeColor=#2D7600;strokeWidth=2;fontFamily=Helvetica;fontSize=13;fontColor=#ffffff;direction=south;container=0;movable=1;resizable=1;rotatable=1;deletable=1;editable=1;connectable=1;" vertex="1" parent="1">
                    <mxGeometry x="449" y="-832.2799999999999" width="33.81" height="8.57" as="geometry"/>
                </mxCell>
                <mxCell id="8" value="" style="verticalLabelPosition=bottom;aspect=fixed;html=1;verticalAlign=top;fillColor=#1ba1e2;align=center;outlineConnect=0;shape=mxgraph.fluid_power.x11980;points=[[0.5,0,0],[0.5,1,0]];rounded=1;strokeColor=#006EAF;strokeWidth=2;fontFamily=Helvetica;fontSize=13;direction=east;container=0;movable=1;resizable=1;rotatable=1;deletable=1;editable=1;connectable=1;fontColor=#ffffff;" vertex="1" parent="1">
                    <mxGeometry x="653.96" y="-810.1799999999998" width="20.79" height="35.73" as="geometry"/>
                </mxCell>
                <mxCell id="9" value="" style="endArrow=none;html=1;fontFamily=Helvetica;fontSize=13;fontColor=rgb(240, 240, 240);entryX=0.5;entryY=1;entryDx=0;entryDy=0;entryPerimeter=0;exitX=1;exitY=0.5;exitDx=0;exitDy=0;fillColor=#1ba1e2;strokeColor=#006EAF;movable=1;resizable=1;rotatable=1;deletable=1;editable=1;connectable=1;strokeWidth=2;" edge="1" parent="1" source="6">
                    <mxGeometry width="50" height="50" relative="1" as="geometry">
                        <mxPoint x="593" y="-854" as="sourcePoint"/>
                        <mxPoint x="671.2700000000004" y="-827.9949999999999" as="targetPoint"/>
                    </mxGeometry>
                </mxCell>
                <mxCell id="10" value="" style="endArrow=none;html=1;fontFamily=Helvetica;fontSize=13;fontColor=rgb(240, 240, 240);exitX=0.5;exitY=0;exitDx=0;exitDy=0;exitPerimeter=0;fillColor=#1ba1e2;strokeColor=#006EAF;movable=1;resizable=1;rotatable=1;deletable=1;editable=1;connectable=1;strokeWidth=2;" edge="1" parent="1" source="8">
                    <mxGeometry width="50" height="50" relative="1" as="geometry">
                        <mxPoint x="647.4900000000002" y="-834.45" as="sourcePoint"/>
                        <mxPoint x="664.4899999999989" y="-828.4499999999998" as="targetPoint"/>
                    </mxGeometry>
                </mxCell>
                <mxCell id="11" value="" style="endArrow=none;html=1;fontFamily=Helvetica;fontSize=13;fontColor=rgb(240, 240, 240);entryX=0.5;entryY=1;entryDx=0;entryDy=0;entryPerimeter=0;exitX=0;exitY=0.699;exitDx=0;exitDy=0;exitPerimeter=0;fillColor=#1ba1e2;strokeColor=#006EAF;movable=1;resizable=1;rotatable=1;deletable=1;editable=1;connectable=1;strokeWidth=2;" edge="1" parent="1" source="162" target="8">
                    <mxGeometry width="50" height="50" relative="1" as="geometry">
                        <mxPoint x="663.71" y="-740.45" as="sourcePoint"/>
                        <mxPoint x="663.575" y="-752.45" as="targetPoint"/>
                    </mxGeometry>
                </mxCell>
                <mxCell id="12" value="" style="endArrow=none;html=1;fontFamily=Helvetica;fontSize=13;fontColor=rgb(240, 240, 240);entryX=0;entryY=0.5;entryDx=0;entryDy=0;exitX=0.5;exitY=0;exitDx=0;exitDy=0;exitPerimeter=0;fillColor=#60a917;strokeColor=#2D7600;movable=1;resizable=1;rotatable=1;deletable=1;editable=1;connectable=1;strokeWidth=2;" edge="1" parent="1" source="7" target="6">
                    <mxGeometry width="50" height="50" relative="1" as="geometry">
                        <mxPoint x="462" y="-861.8399999999999" as="sourcePoint"/>
                        <mxPoint x="509.0000000000002" y="-861.8349999999998" as="targetPoint"/>
                    </mxGeometry>
                </mxCell>
                <mxCell id="13" value="" style="endArrow=none;html=1;fontFamily=Helvetica;fontSize=13;fontColor=rgb(240, 240, 240);entryX=0.99;entryY=0.692;entryDx=0;entryDy=0;entryPerimeter=0;exitX=0.5;exitY=1;exitDx=0;exitDy=0;exitPerimeter=0;fillColor=#60a917;strokeColor=#2D7600;movable=1;resizable=1;rotatable=1;deletable=1;editable=1;connectable=1;strokeWidth=2;" edge="1" parent="1" source="7">
                    <mxGeometry width="50" height="50" relative="1" as="geometry">
                        <mxPoint x="491" y="-861.97" as="sourcePoint"/>
                        <mxPoint x="436.52000000000044" y="-828.0259999999998" as="targetPoint"/>
                    </mxGeometry>
                </mxCell>
                <mxCell id="14" value="" style="verticalLabelPosition=bottom;align=center;html=1;verticalAlign=top;pointerEvents=1;dashed=0;shape=mxgraph.pid2valves.valve;valveType=gate;actuator=man;rounded=1;strokeColor=#006EAF;strokeWidth=2;fontFamily=Helvetica;fontSize=13;fillColor=#1ba1e2;rotation=0;shadow=0;direction=east;flipV=1;container=0;movable=1;resizable=1;rotatable=1;deletable=1;editable=1;connectable=1;fontColor=#ffffff;" vertex="1" parent="1">
                    <mxGeometry x="569.3299999999999" y="-738" width="48" height="42" as="geometry"/>
                </mxCell>
                <mxCell id="15" value="" style="verticalLabelPosition=bottom;aspect=fixed;html=1;verticalAlign=top;fillColor=#1ba1e2;align=center;outlineConnect=0;shape=mxgraph.fluid_power.x10500;points=[[0.47,0,0],[0.47,1,0]];rounded=1;strokeColor=#006EAF;strokeWidth=2;fontFamily=Helvetica;fontSize=13;direction=south;container=0;movable=1;resizable=1;rotatable=1;deletable=1;editable=1;connectable=1;fontColor=#ffffff;" vertex="1" parent="1">
                    <mxGeometry x="508.68000000000006" y="-743.3799999999999" width="33.8" height="35.38" as="geometry"/>
                </mxCell>
                <mxCell id="16" value="" style="verticalLabelPosition=bottom;align=center;html=1;verticalAlign=top;pointerEvents=1;dashed=0;shape=mxgraph.pid2valves.valve;valveType=gate;actuator=solenoid;rounded=1;strokeColor=#006EAF;strokeWidth=3;fontFamily=Helvetica;fontSize=13;fillColor=#1ba1e2;flipV=1;container=0;movable=1;resizable=1;rotatable=1;deletable=1;editable=1;connectable=1;fontColor=#ffffff;aspect=fixed;flipH=1;" vertex="1" parent="1">
                    <mxGeometry x="567.36" y="-606.55" width="53.93" height="45.5" as="geometry"/>
                </mxCell>
                <mxCell id="17" value="" style="verticalLabelPosition=bottom;aspect=fixed;html=1;verticalAlign=top;fillColor=#1ba1e2;align=center;outlineConnect=0;shape=mxgraph.fluid_power.x11820;points=[[0.5,1,0]];rounded=1;strokeColor=#006EAF;strokeWidth=2;fontFamily=Helvetica;fontSize=13;direction=north;flipH=0;flipV=0;container=0;movable=1;resizable=1;rotatable=1;deletable=1;editable=1;connectable=1;fontColor=#ffffff;" vertex="1" parent="1">
                    <mxGeometry x="507.30000000000007" y="-605.55" width="36.06" height="24" as="geometry"/>
                </mxCell>
                <mxCell id="18" value="" style="verticalLabelPosition=bottom;aspect=fixed;html=1;verticalAlign=top;fillColor=#1ba1e2;align=center;outlineConnect=0;shape=mxgraph.fluid_power.x11820;points=[[0.5,1,0]];rounded=1;strokeColor=#006EAF;strokeWidth=2;fontFamily=Helvetica;fontSize=13;direction=west;flipH=1;flipV=0;container=0;movable=1;resizable=1;rotatable=1;deletable=1;editable=1;connectable=1;fontColor=#ffffff;" vertex="1" parent="1">
                    <mxGeometry x="543.36" y="-565.55" width="24" height="36.06" as="geometry"/>
                </mxCell>
                <mxCell id="19" value="" style="endArrow=none;html=1;fontFamily=Helvetica;fontSize=13;fontColor=rgb(240, 240, 240);entryX=0.5;entryY=1;entryDx=0;entryDy=0;entryPerimeter=0;exitX=0.5;exitY=1;exitDx=0;exitDy=0;fillColor=#1ba1e2;strokeColor=#006EAF;movable=1;resizable=1;rotatable=1;deletable=1;editable=1;connectable=1;strokeWidth=2;" edge="1" parent="1" source="6" target="18">
                    <mxGeometry width="50" height="50" relative="1" as="geometry">
                        <mxPoint x="557" y="-786" as="sourcePoint"/>
                        <mxPoint x="553" y="-882" as="targetPoint"/>
                    </mxGeometry>
                </mxCell>
                <mxCell id="20" value="" style="shape=partialRectangle;whiteSpace=wrap;html=1;bottom=0;right=0;fillColor=none;rounded=1;strokeColor=#006EAF;strokeWidth=2;fontFamily=Helvetica;fontSize=13;flipV=1;container=0;movable=1;resizable=1;rotatable=1;deletable=1;editable=1;connectable=1;fontColor=#ffffff;" vertex="1" parent="1">
                    <mxGeometry x="664.22" y="-715.73" width="12" height="42" as="geometry"/>
                </mxCell>
                <mxCell id="21" value="" style="endArrow=none;html=1;fontFamily=Helvetica;fontSize=13;fontColor=rgb(240, 240, 240);exitX=0.47;exitY=0;exitDx=0;exitDy=0;exitPerimeter=0;fillColor=#e51400;strokeColor=#B20000;movable=1;resizable=1;rotatable=1;deletable=1;editable=1;connectable=1;strokeWidth=2;" edge="1" parent="1" source="32">
                    <mxGeometry width="50" height="50" relative="1" as="geometry">
                        <mxPoint x="538.4100000000001" y="-1036.94" as="sourcePoint"/>
                        <mxPoint x="617" y="-1026.9399999999996" as="targetPoint"/>
                    </mxGeometry>
                </mxCell>
                <mxCell id="22" value="" style="rounded=1;arcSize=50;whiteSpace=wrap;html=1;perimeterSpacing=1;strokeWidth=2;fillColor=#e51400;fontColor=#ffffff;strokeColor=#B20000;movable=1;resizable=1;rotatable=1;deletable=1;editable=1;connectable=1;container=0;fontSize=13;" vertex="1" parent="1">
                    <mxGeometry x="509" y="-948.94" width="96" height="48" as="geometry"/>
                </mxCell>
                <mxCell id="23" value="" style="verticalLabelPosition=bottom;align=center;html=1;verticalAlign=top;pointerEvents=1;dashed=0;shape=mxgraph.pid2valves.valve;valveType=gate;actuator=man;rounded=1;strokeColor=#B20000;strokeWidth=2;fontFamily=Helvetica;fontSize=13;fontColor=#ffffff;fillColor=#e51400;rotation=0;shadow=0;direction=north;movable=1;resizable=1;rotatable=1;deletable=1;editable=1;connectable=1;container=0;" vertex="1" parent="1">
                    <mxGeometry x="635" y="-1043.94" width="42" height="48" as="geometry"/>
                </mxCell>
                <mxCell id="24" value="" style="verticalLabelPosition=bottom;aspect=fixed;html=1;verticalAlign=top;fillColor=#60a917;align=center;outlineConnect=0;shape=mxgraph.fluid_power.x10710;points=[[0.5,0,0],[0.5,1,0]];rounded=1;strokeColor=#2D7600;strokeWidth=2;fontFamily=Helvetica;fontSize=13;fontColor=#ffffff;direction=south;movable=1;resizable=1;rotatable=1;deletable=1;editable=1;connectable=1;container=0;" vertex="1" parent="1">
                    <mxGeometry x="449" y="-928.2300000000001" width="33.81" height="8.57" as="geometry"/>
                </mxCell>
                <mxCell id="25" value="" style="verticalLabelPosition=bottom;aspect=fixed;html=1;verticalAlign=top;fillColor=#e51400;align=center;outlineConnect=0;shape=mxgraph.fluid_power.x11980;points=[[0.5,0,0],[0.5,1,0]];rounded=1;strokeColor=#B20000;strokeWidth=2;fontFamily=Helvetica;fontSize=13;fontColor=#ffffff;direction=west;movable=1;resizable=1;rotatable=1;deletable=1;editable=1;connectable=1;container=0;" vertex="1" parent="1">
                    <mxGeometry x="653.96" y="-977.94" width="20.79" height="35.73" as="geometry"/>
                </mxCell>
                <mxCell id="26" value="" style="endArrow=none;html=1;fontFamily=Helvetica;fontSize=13;fontColor=rgb(240, 240, 240);entryX=0.5;entryY=1;entryDx=0;entryDy=0;entryPerimeter=0;exitX=1;exitY=0.5;exitDx=0;exitDy=0;fillColor=#e51400;strokeColor=#B20000;movable=1;resizable=1;rotatable=1;deletable=1;editable=1;connectable=1;strokeWidth=2;" edge="1" parent="1" target="159">
                    <mxGeometry width="50" height="50" relative="1" as="geometry">
                        <mxPoint x="606" y="-923.94" as="sourcePoint"/>
                        <mxPoint x="749.2700000000004" y="-923.9450000000002" as="targetPoint"/>
                    </mxGeometry>
                </mxCell>
                <mxCell id="27" value="" style="endArrow=none;html=1;fontFamily=Helvetica;fontSize=13;fontColor=rgb(240, 240, 240);exitX=0.5;exitY=0;exitDx=0;exitDy=0;exitPerimeter=0;fillColor=#e51400;strokeColor=#B20000;movable=1;resizable=1;rotatable=1;deletable=1;editable=1;connectable=1;strokeWidth=2;" edge="1" parent="1" source="25">
                    <mxGeometry width="50" height="50" relative="1" as="geometry">
                        <mxPoint x="647.4900000000002" y="-917.94" as="sourcePoint"/>
                        <mxPoint x="664.4899999999989" y="-923.94" as="targetPoint"/>
                    </mxGeometry>
                </mxCell>
                <mxCell id="28" value="" style="endArrow=none;html=1;fontFamily=Helvetica;fontSize=13;fontColor=rgb(240, 240, 240);entryX=0.5;entryY=1;entryDx=0;entryDy=0;entryPerimeter=0;exitX=0;exitY=0.699;exitDx=0;exitDy=0;exitPerimeter=0;fillColor=#e51400;strokeColor=#B20000;movable=1;resizable=1;rotatable=1;deletable=1;editable=1;connectable=1;strokeWidth=2;" edge="1" parent="1" source="23" target="25">
                    <mxGeometry width="50" height="50" relative="1" as="geometry">
                        <mxPoint x="664.49" y="-989.94" as="sourcePoint"/>
                        <mxPoint x="700.4900000000002" y="-911.9450000000002" as="targetPoint"/>
                    </mxGeometry>
                </mxCell>
                <mxCell id="29" value="" style="endArrow=none;html=1;fontFamily=Helvetica;fontSize=13;fontColor=rgb(240, 240, 240);entryX=0;entryY=0.5;entryDx=0;entryDy=0;exitX=0.5;exitY=0;exitDx=0;exitDy=0;exitPerimeter=0;fillColor=#60a917;strokeColor=#2D7600;movable=1;resizable=1;rotatable=1;deletable=1;editable=1;connectable=1;strokeWidth=2;" edge="1" parent="1" source="24">
                    <mxGeometry width="50" height="50" relative="1" as="geometry">
                        <mxPoint x="462" y="-890.1" as="sourcePoint"/>
                        <mxPoint x="508" y="-923.94" as="targetPoint"/>
                    </mxGeometry>
                </mxCell>
                <mxCell id="30" value="" style="endArrow=none;html=1;fontFamily=Helvetica;fontSize=13;fontColor=rgb(240, 240, 240);entryX=0.99;entryY=0.692;entryDx=0;entryDy=0;entryPerimeter=0;exitX=0.5;exitY=1;exitDx=0;exitDy=0;exitPerimeter=0;fillColor=#60a917;strokeColor=#2D7600;movable=1;resizable=1;rotatable=1;deletable=1;editable=1;connectable=1;strokeWidth=2;" edge="1" parent="1" source="24">
                    <mxGeometry width="50" height="50" relative="1" as="geometry">
                        <mxPoint x="491" y="-889.97" as="sourcePoint"/>
                        <mxPoint x="436.52000000000044" y="-923.9139999999998" as="targetPoint"/>
                    </mxGeometry>
                </mxCell>
                <mxCell id="31" value="" style="verticalLabelPosition=bottom;align=center;html=1;verticalAlign=top;pointerEvents=1;dashed=0;shape=mxgraph.pid2valves.valve;valveType=gate;actuator=man;rounded=1;strokeColor=#B20000;strokeWidth=2;fontFamily=Helvetica;fontSize=13;fontColor=#ffffff;fillColor=#e51400;rotation=0;shadow=0;direction=east;movable=1;resizable=1;rotatable=1;deletable=1;editable=1;connectable=1;container=0;" vertex="1" parent="1">
                    <mxGeometry x="569.3299999999999" y="-1055.94" width="48" height="42" as="geometry"/>
                </mxCell>
                <mxCell id="32" value="" style="verticalLabelPosition=bottom;aspect=fixed;html=1;verticalAlign=top;fillColor=#e51400;align=center;outlineConnect=0;shape=mxgraph.fluid_power.x10500;points=[[0.47,0,0],[0.47,1,0]];rounded=1;strokeColor=#B20000;strokeWidth=2;fontFamily=Helvetica;fontSize=13;fontColor=#ffffff;direction=south;movable=1;resizable=1;rotatable=1;deletable=1;editable=1;connectable=1;container=0;" vertex="1" parent="1">
                    <mxGeometry x="508.68000000000006" y="-1043.94" width="33.8" height="35.38" as="geometry"/>
                </mxCell>
                <mxCell id="33" value="" style="verticalLabelPosition=bottom;aspect=fixed;html=1;verticalAlign=top;fillColor=#e51400;align=center;outlineConnect=0;shape=mxgraph.fluid_power.x11820;points=[[0.5,1,0]];rounded=1;strokeColor=#B20000;strokeWidth=2;fontFamily=Helvetica;fontSize=13;fontColor=#ffffff;direction=north;flipH=0;flipV=1;movable=1;resizable=1;rotatable=1;deletable=1;editable=1;connectable=1;container=0;" vertex="1" parent="1">
                    <mxGeometry x="507.49" y="-1174.44" width="36.06" height="24" as="geometry"/>
                </mxCell>
                <mxCell id="34" value="" style="verticalLabelPosition=bottom;aspect=fixed;html=1;verticalAlign=top;fillColor=#e51400;align=center;outlineConnect=0;shape=mxgraph.fluid_power.x11820;points=[[0.5,1,0]];rounded=1;strokeColor=#B20000;strokeWidth=2;fontFamily=Helvetica;fontSize=13;fontColor=#ffffff;direction=west;flipH=1;flipV=1;movable=1;resizable=1;rotatable=1;deletable=1;editable=1;connectable=1;container=0;" vertex="1" parent="1">
                    <mxGeometry x="543.55" y="-1227" width="24" height="36.06" as="geometry"/>
                </mxCell>
                <mxCell id="35" value="" style="endArrow=none;html=1;fontFamily=Helvetica;fontSize=13;fontColor=rgb(240, 240, 240);entryX=0.5;entryY=1;entryDx=0;entryDy=0;entryPerimeter=0;exitX=0.5;exitY=0;exitDx=0;exitDy=0;fillColor=#e51400;strokeColor=#B20000;movable=1;resizable=1;rotatable=1;deletable=1;editable=1;connectable=1;strokeWidth=2;" edge="1" parent="1" target="34">
                    <mxGeometry width="50" height="50" relative="1" as="geometry">
                        <mxPoint x="557" y="-948.94" as="sourcePoint"/>
                        <mxPoint x="553" y="-869.94" as="targetPoint"/>
                    </mxGeometry>
                </mxCell>
                <mxCell id="36" value="" style="endArrow=none;html=1;fontFamily=Helvetica;fontSize=13;fontColor=rgb(240, 240, 240);exitX=0.5;exitY=1;exitDx=0;exitDy=0;exitPerimeter=0;entryX=0.008;entryY=0.711;entryDx=0;entryDy=0;entryPerimeter=0;fillColor=#e51400;strokeColor=#B20000;movable=1;resizable=1;rotatable=1;deletable=1;editable=1;connectable=1;strokeWidth=2;" edge="1" parent="1" source="33">
                    <mxGeometry width="50" height="50" relative="1" as="geometry">
                        <mxPoint x="540.7" y="-1150.4414" as="sourcePoint"/>
                        <mxPoint x="567.8739999999998" y="-1162.1444999999994" as="targetPoint"/>
                    </mxGeometry>
                </mxCell>
                <mxCell id="37" value="" style="verticalLabelPosition=bottom;aspect=fixed;html=1;verticalAlign=top;fillColor=#e51400;align=center;outlineConnect=0;shape=mxgraph.fluid_power.x11700;points=[[0.5,0,0],[0.5,1,0]];rounded=1;strokeColor=#B20000;strokeWidth=2;fontFamily=Helvetica;fontSize=13;fontColor=#ffffff;direction=north;movable=1;resizable=1;rotatable=1;deletable=1;editable=1;connectable=1;container=0;" vertex="1" parent="1">
                    <mxGeometry x="672" y="-1065.94" width="42.78" height="7.9" as="geometry"/>
                </mxCell>
                <mxCell id="38" value="" style="shape=partialRectangle;whiteSpace=wrap;html=1;bottom=0;right=0;fillColor=none;rounded=1;strokeColor=#B20000;strokeWidth=2;fontFamily=Helvetica;fontSize=13;fontColor=#ffffff;movable=1;resizable=1;rotatable=1;deletable=1;editable=1;connectable=1;container=0;" vertex="1" parent="1">
                    <mxGeometry x="665" y="-1061.94" width="12" height="18" as="geometry"/>
                </mxCell>
                <mxCell id="39" value="" style="endArrow=none;html=1;strokeWidth=2;fillColor=#60a917;strokeColor=#2D7600;fontSize=13;" edge="1" parent="1">
                    <mxGeometry width="50" height="50" relative="1" as="geometry">
                        <mxPoint x="208.9999999999991" y="-435" as="sourcePoint"/>
                        <mxPoint x="1430" y="-435" as="targetPoint"/>
                    </mxGeometry>
                </mxCell>
                <mxCell id="40" value="" style="endArrow=none;html=1;strokeWidth=2;fillColor=#60a917;strokeColor=#2D7600;fontSize=13;" edge="1" parent="1">
                    <mxGeometry width="50" height="50" relative="1" as="geometry">
                        <mxPoint x="211" y="-1317.9999999999995" as="sourcePoint"/>
                        <mxPoint x="210" y="-876" as="targetPoint"/>
                    </mxGeometry>
                </mxCell>
                <mxCell id="41" value="" style="endArrow=none;html=1;strokeWidth=2;fillColor=#60a917;strokeColor=#2D7600;fontSize=13;" edge="1" parent="1">
                    <mxGeometry width="50" height="50" relative="1" as="geometry">
                        <mxPoint x="210" y="-1319" as="sourcePoint"/>
                        <mxPoint x="1430" y="-1319" as="targetPoint"/>
                    </mxGeometry>
                </mxCell>
                <mxCell id="42" value="" style="endArrow=none;html=1;strokeWidth=2;entryX=-0.007;entryY=0.697;entryDx=0;entryDy=0;entryPerimeter=0;fillColor=#60a917;strokeColor=#2D7600;fontSize=13;" edge="1" parent="1">
                    <mxGeometry width="50" height="50" relative="1" as="geometry">
                        <mxPoint x="332" y="-827.9999999999995" as="sourcePoint"/>
                        <mxPoint x="388.66399999999976" y="-828.2285000000002" as="targetPoint"/>
                    </mxGeometry>
                </mxCell>
                <mxCell id="43" value="" style="endArrow=none;html=1;strokeWidth=2;entryX=-0.007;entryY=0.697;entryDx=0;entryDy=0;entryPerimeter=0;fillColor=#60a917;strokeColor=#2D7600;fontSize=13;" edge="1" parent="1">
                    <mxGeometry width="50" height="50" relative="1" as="geometry">
                        <mxPoint x="332" y="-924" as="sourcePoint"/>
                        <mxPoint x="388.66399999999976" y="-923.9985000000001" as="targetPoint"/>
                    </mxGeometry>
                </mxCell>
                <mxCell id="44" value="" style="verticalLabelPosition=bottom;aspect=fixed;html=1;verticalAlign=top;fillColor=#60a917;align=center;outlineConnect=0;shape=mxgraph.fluid_power.x10500;points=[[0.47,0,0],[0.47,1,0]];rounded=1;strokeColor=#2D7600;strokeWidth=2;fontFamily=Helvetica;fontSize=13;fontColor=#ffffff;direction=south;container=0;movable=1;resizable=1;rotatable=1;deletable=1;editable=1;connectable=1;" vertex="1" parent="1">
                    <mxGeometry x="-88.99999999999989" y="-958.4499999999998" width="33.8" height="35.38" as="geometry"/>
                </mxCell>
                <mxCell id="45" value="" style="verticalLabelPosition=bottom;aspect=fixed;html=1;verticalAlign=top;fillColor=#60a917;align=center;outlineConnect=0;shape=mxgraph.fluid_power.x11820;points=[[0.5,1,0]];rounded=1;strokeColor=#2D7600;strokeWidth=2;fontFamily=Helvetica;fontSize=13;fontColor=#ffffff;direction=south;flipH=1;flipV=0;movable=1;resizable=1;rotatable=1;deletable=1;editable=1;connectable=1;container=0;" vertex="1" parent="1">
                    <mxGeometry x="-86.00000000000006" y="-1036.25" width="36.06" height="24" as="geometry"/>
                </mxCell>
                <mxCell id="46" value="" style="rounded=1;arcSize=50;whiteSpace=wrap;html=1;perimeterSpacing=1;strokeWidth=2;flipV=0;flipH=0;direction=east;container=0;fillColor=#60a917;fontColor=#ffffff;strokeColor=#2D7600;movable=1;resizable=1;rotatable=1;deletable=1;editable=1;connectable=1;aspect=fixed;fontSize=13;" vertex="1" parent="1">
                    <mxGeometry x="-106" y="-909.45" width="128" height="64" as="geometry"/>
                </mxCell>
                <mxCell id="47" value="" style="endArrow=none;html=1;strokeWidth=2;exitX=0.5;exitY=0;exitDx=0;exitDy=0;fillColor=#60a917;strokeColor=#2D7600;fontSize=13;" edge="1" parent="1" source="46">
                    <mxGeometry width="50" height="50" relative="1" as="geometry">
                        <mxPoint x="4" y="-966.45" as="sourcePoint"/>
                        <mxPoint x="-42" y="-1146" as="targetPoint"/>
                    </mxGeometry>
                </mxCell>
                <mxCell id="48" value="" style="endArrow=none;html=1;strokeWidth=2;fillColor=#60a917;strokeColor=#2D7600;fontSize=13;" edge="1" parent="1">
                    <mxGeometry width="50" height="50" relative="1" as="geometry">
                        <mxPoint x="-57" y="-1024.4499999999994" as="sourcePoint"/>
                        <mxPoint x="-27" y="-1024.4499999999994" as="targetPoint"/>
                    </mxGeometry>
                </mxCell>
                <mxCell id="49" value="" style="verticalLabelPosition=bottom;align=center;html=1;verticalAlign=top;pointerEvents=1;dashed=0;shape=mxgraph.pid2valves.valve;valveType=gate;actuator=man;rounded=1;strokeColor=#2D7600;strokeWidth=2;fontFamily=Helvetica;fontSize=13;fontColor=#ffffff;fillColor=#60a917;flipV=1;container=0;movable=1;resizable=1;rotatable=1;deletable=1;editable=1;connectable=1;direction=west;flipH=1;" vertex="1" parent="1">
                    <mxGeometry x="-26" y="-972.45" width="48" height="42" as="geometry"/>
                </mxCell>
                <mxCell id="50" value="" style="endArrow=none;html=1;strokeWidth=2;entryX=0.47;entryY=0;entryDx=0;entryDy=0;entryPerimeter=0;exitX=-0.002;exitY=0.729;exitDx=0;exitDy=0;exitPerimeter=0;fillColor=#60a917;strokeColor=#2D7600;fontSize=13;" edge="1" parent="1" source="49" target="44">
                    <mxGeometry width="50" height="50" relative="1" as="geometry">
                        <mxPoint x="-114" y="-935.45" as="sourcePoint"/>
                        <mxPoint x="-64" y="-985.45" as="targetPoint"/>
                    </mxGeometry>
                </mxCell>
                <mxCell id="51" value="" style="rounded=1;arcSize=50;whiteSpace=wrap;html=1;perimeterSpacing=1;strokeWidth=2;flipV=0;flipH=0;direction=south;container=0;fillColor=#60a917;fontColor=#ffffff;strokeColor=#2D7600;movable=1;resizable=1;rotatable=1;deletable=1;editable=1;connectable=1;aspect=fixed;fontSize=13;" vertex="1" parent="1">
                    <mxGeometry x="-428" y="-816.45" width="64" height="223" as="geometry"/>
                </mxCell>
                <mxCell id="52" value="" style="verticalLabelPosition=bottom;aspect=fixed;html=1;verticalAlign=top;fillColor=#60a917;align=center;outlineConnect=0;shape=mxgraph.fluid_power.x11700;points=[[0.5,0,0],[0.5,1,0]];rounded=1;strokeColor=#2D7600;strokeWidth=2;fontFamily=Helvetica;fontSize=13;fontColor=#ffffff;direction=south;movable=1;resizable=1;rotatable=1;deletable=1;editable=1;connectable=1;container=0;" vertex="1" parent="1">
                    <mxGeometry x="-276" y="-881.4" width="42.78" height="7.9" as="geometry"/>
                </mxCell>
                <mxCell id="53" value="" style="endArrow=none;html=1;strokeWidth=2;entryX=0;entryY=0.5;entryDx=0;entryDy=0;fillColor=#60a917;strokeColor=#2D7600;fontSize=13;" edge="1" parent="1" target="46">
                    <mxGeometry width="50" height="50" relative="1" as="geometry">
                        <mxPoint x="-172" y="-877.4499999999998" as="sourcePoint"/>
                        <mxPoint x="-231" y="-858.45" as="targetPoint"/>
                    </mxGeometry>
                </mxCell>
                <mxCell id="54" value="" style="endArrow=none;html=1;strokeWidth=2;entryX=0.5;entryY=0;entryDx=0;entryDy=0;entryPerimeter=0;exitX=-0.021;exitY=0.698;exitDx=0;exitDy=0;exitPerimeter=0;fillColor=#60a917;strokeColor=#2D7600;fontSize=13;" edge="1" parent="1" target="52">
                    <mxGeometry width="50" height="50" relative="1" as="geometry">
                        <mxPoint x="-222.0079999999998" y="-877.4309999999991" as="sourcePoint"/>
                        <mxPoint x="-213" y="-882.45" as="targetPoint"/>
                    </mxGeometry>
                </mxCell>
                <mxCell id="55" value="" style="endArrow=none;html=1;strokeWidth=2;exitX=-0.021;exitY=0.698;exitDx=0;exitDy=0;exitPerimeter=0;fillColor=#60a917;strokeColor=#2D7600;dashed=1;dashPattern=1 2;entryX=0.47;entryY=0;entryDx=0;entryDy=0;entryPerimeter=0;fontSize=13;" edge="1" parent="1">
                    <mxGeometry width="50" height="50" relative="1" as="geometry">
                        <mxPoint x="-275.9979999999996" y="-877.5109999999995" as="sourcePoint"/>
                        <mxPoint x="-346.2000000000007" y="-877.8213999999998" as="targetPoint"/>
                    </mxGeometry>
                </mxCell>
                <mxCell id="56" value="" style="group;strokeWidth=2;fontSize=13;" vertex="1" connectable="0" parent="1">
                    <mxGeometry x="-417.0046513140389" y="-911.4503798488449" width="96.00503116288371" height="52.240379848844896" as="geometry"/>
                </mxCell>
                <mxCell id="57" value="" style="verticalLabelPosition=bottom;aspect=fixed;html=1;verticalAlign=top;fillColor=#60A917;align=center;outlineConnect=0;shape=mxgraph.fluid_power.x11820;points=[[0.5,1,0]];rounded=1;strokeColor=#2D7600;strokeWidth=2;fontFamily=Helvetica;fontSize=13;fontColor=#ffffff;direction=west;flipH=1;flipV=1;movable=1;resizable=1;rotatable=1;deletable=1;editable=1;connectable=1;container=0;rotation=45;" vertex="1" parent="56">
                    <mxGeometry x="70.40465131403886" y="2.470379848844857" width="18.49" height="27.77" as="geometry"/>
                </mxCell>
                <mxCell id="58" value="" style="verticalLabelPosition=bottom;aspect=fixed;html=1;verticalAlign=top;fillColor=#60A917;align=center;outlineConnect=0;shape=mxgraph.fluid_power.x11820;points=[[0.5,1,0]];rounded=1;strokeColor=#2D7600;strokeWidth=2;fontFamily=Helvetica;fontSize=13;fontColor=#ffffff;direction=south;flipH=1;flipV=0;movable=1;resizable=1;rotatable=1;deletable=1;editable=1;connectable=1;container=0;rotation=45;gradientColor=none;" vertex="1" parent="56">
                    <mxGeometry x="2.4046513140388583" y="7.240379848844896" width="27.06" height="18.01" as="geometry"/>
                </mxCell>
                <mxCell id="59" value="" style="ellipse;whiteSpace=wrap;html=1;labelBackgroundColor=none;strokeColor=#2D7600;fontFamily=Helvetica;fontSize=13;fontColor=#ffffff;fillColor=#60a917;strokeWidth=2;" vertex="1" parent="56">
                    <mxGeometry x="18.40465131403886" y="19.240379848844896" width="58" height="28" as="geometry"/>
                </mxCell>
                <mxCell id="60" value="" style="shape=or;whiteSpace=wrap;html=1;labelBackgroundColor=none;strokeColor=#2D7600;fontFamily=Helvetica;fontSize=13;fontColor=#ffffff;fillColor=#60a917;rotation=-90;strokeWidth=2;" vertex="1" parent="56">
                    <mxGeometry x="43.70465131403887" y="-3.529620151155143" width="7.38" height="22.63" as="geometry"/>
                </mxCell>
                <mxCell id="61" value="" style="endArrow=none;html=1;fontFamily=Helvetica;fontSize=13;fontColor=default;entryX=0;entryY=0.5;entryDx=0;entryDy=0;entryPerimeter=0;exitX=0.5;exitY=0;exitDx=0;exitDy=0;strokeWidth=2;fillColor=#60a917;strokeColor=#2D7600;" edge="1" parent="56" source="59" target="60">
                    <mxGeometry width="50" height="50" relative="1" as="geometry">
                        <mxPoint x="26.40465131403886" y="76.24037984884487" as="sourcePoint"/>
                        <mxPoint x="76.40465131403886" y="26.240379848844896" as="targetPoint"/>
                    </mxGeometry>
                </mxCell>
                <mxCell id="62" value="" style="endArrow=none;html=1;strokeWidth=2;fontFamily=Helvetica;fontSize=13;fontColor=default;entryX=0.5;entryY=1;entryDx=0;entryDy=0;fillColor=#60a917;strokeColor=#2D7600;" edge="1" parent="56" target="59">
                    <mxGeometry width="50" height="50" relative="1" as="geometry">
                        <mxPoint x="47.40465131403886" y="52.240379848844896" as="sourcePoint"/>
                        <mxPoint x="48.40465131403886" y="36.240379848844896" as="targetPoint"/>
                    </mxGeometry>
                </mxCell>
                <mxCell id="63" value="" style="endArrow=none;html=1;strokeWidth=2;fontFamily=Helvetica;fontSize=13;fontColor=default;fillColor=#60a917;strokeColor=#2D7600;" edge="1" parent="56">
                    <mxGeometry width="50" height="50" relative="1" as="geometry">
                        <mxPoint x="43.40465131403886" y="52.240379848844896" as="sourcePoint"/>
                        <mxPoint x="51.40465131403886" y="52.240379848844896" as="targetPoint"/>
                    </mxGeometry>
                </mxCell>
                <mxCell id="64" value="" style="endArrow=none;html=1;strokeWidth=2;fontFamily=Helvetica;fontSize=13;fontColor=default;fillColor=#60a917;strokeColor=#2D7600;exitX=0;exitY=1;exitDx=0;exitDy=0;" edge="1" parent="56" source="59">
                    <mxGeometry width="50" height="50" relative="1" as="geometry">
                        <mxPoint x="30.40465131403886" y="49.81037984884489" as="sourcePoint"/>
                        <mxPoint x="20.40465131403886" y="51.240379848844896" as="targetPoint"/>
                    </mxGeometry>
                </mxCell>
                <mxCell id="65" value="&lt;font style=&quot;font-size: 13px;&quot;&gt;&lt;b style=&quot;font-size: 13px;&quot;&gt;PR31&lt;/b&gt;&lt;/font&gt;" style="text;html=1;strokeColor=none;fillColor=none;align=center;verticalAlign=middle;whiteSpace=wrap;rounded=0;labelBackgroundColor=none;fontFamily=Helvetica;fontSize=13;fontColor=default;" vertex="1" parent="56">
                    <mxGeometry x="21.50465131403888" y="-22.209620151155093" width="53" height="29.45" as="geometry"/>
                </mxCell>
                <mxCell id="66" value="" style="endArrow=none;html=1;strokeWidth=2;fontFamily=Helvetica;fontSize=13;fontColor=default;fillColor=#60a917;strokeColor=#2D7600;exitX=0;exitY=0.5;exitDx=0;exitDy=0;" edge="1" parent="1" source="51">
                    <mxGeometry width="50" height="50" relative="1" as="geometry">
                        <mxPoint x="-396.08" y="-816.45" as="sourcePoint"/>
                        <mxPoint x="-396.0799999999999" y="-861.4499999999998" as="targetPoint"/>
                    </mxGeometry>
                </mxCell>
                <mxCell id="67" value="" style="endArrow=none;html=1;strokeWidth=2;fontFamily=Helvetica;fontSize=13;fontColor=default;" edge="1" parent="1">
                    <mxGeometry width="50" height="50" relative="1" as="geometry">
                        <mxPoint x="-484" y="-416" as="sourcePoint"/>
                        <mxPoint x="-484" y="-1320" as="targetPoint"/>
                    </mxGeometry>
                </mxCell>
                <mxCell id="68" value="" style="endArrow=none;html=1;strokeWidth=2;fontFamily=Helvetica;fontSize=13;fontColor=default;" edge="1" parent="1">
                    <mxGeometry width="50" height="50" relative="1" as="geometry">
                        <mxPoint x="1917" y="-428" as="sourcePoint"/>
                        <mxPoint x="1917" y="-1332" as="targetPoint"/>
                    </mxGeometry>
                </mxCell>
                <mxCell id="69" value="" style="verticalLabelPosition=bottom;align=center;html=1;verticalAlign=top;pointerEvents=1;dashed=0;shape=mxgraph.pid2valves.valve;valveType=gate;actuator=solenoid;rounded=1;strokeColor=#B20000;strokeWidth=3;fontFamily=Helvetica;fontSize=13;fillColor=#e51400;flipV=1;container=0;movable=1;resizable=1;rotatable=1;deletable=1;editable=1;connectable=1;fontColor=#ffffff;aspect=fixed;rotation=-180;flipH=1;" vertex="1" parent="1">
                    <mxGeometry x="564.58" y="-1194" width="53.93" height="45.5" as="geometry"/>
                </mxCell>
                <mxCell id="70" value="" style="verticalLabelPosition=bottom;align=center;html=1;verticalAlign=top;pointerEvents=1;dashed=0;shape=mxgraph.pid2valves.valve;valveType=gate;actuator=solenoid;rounded=1;strokeColor=#2D7600;strokeWidth=3;fontFamily=Helvetica;fontSize=13;fillColor=#60a917;flipV=1;container=0;movable=1;resizable=1;rotatable=1;deletable=1;editable=1;connectable=1;fontColor=#ffffff;aspect=fixed;rotation=-180;flipH=1;" vertex="1" parent="1">
                    <mxGeometry x="386.03" y="-955.19" width="53.93" height="45.5" as="geometry"/>
                </mxCell>
                <mxCell id="71" value="" style="verticalLabelPosition=bottom;align=center;html=1;verticalAlign=top;pointerEvents=1;dashed=0;shape=mxgraph.pid2valves.valve;valveType=gate;actuator=solenoid;rounded=1;strokeColor=#2D7600;strokeWidth=3;fontFamily=Helvetica;fontSize=13;fillColor=#60a917;flipV=1;container=0;movable=1;resizable=1;rotatable=1;deletable=1;editable=1;connectable=1;fontColor=#ffffff;aspect=fixed;rotation=-180;flipH=1;direction=west;" vertex="1" parent="1">
                    <mxGeometry x="386.03" y="-842" width="53.93" height="45.5" as="geometry"/>
                </mxCell>
                <mxCell id="72" value="" style="endArrow=none;html=1;fontFamily=Helvetica;fontSize=13;fontColor=rgb(240, 240, 240);exitX=0.5;exitY=1;exitDx=0;exitDy=0;exitPerimeter=0;fillColor=#1ba1e2;strokeColor=#006EAF;movable=1;resizable=1;rotatable=1;deletable=1;editable=1;connectable=1;strokeWidth=2;" edge="1" parent="1" source="17">
                    <mxGeometry width="50" height="50" relative="1" as="geometry">
                        <mxPoint x="540.5100000000001" y="-606.0485999999999" as="sourcePoint"/>
                        <mxPoint x="568.0300000000007" y="-593.5500000000002" as="targetPoint"/>
                    </mxGeometry>
                </mxCell>
                <mxCell id="73" value="" style="verticalLabelPosition=bottom;align=center;html=1;verticalAlign=top;pointerEvents=1;dashed=0;shape=mxgraph.pid2valves.valve;valveType=gate;actuator=solenoid;rounded=1;strokeColor=#2D7600;strokeWidth=3;fontFamily=Helvetica;fontSize=13;fillColor=#60a917;flipV=1;container=0;movable=1;resizable=1;rotatable=1;deletable=1;editable=1;connectable=1;fontColor=#ffffff;aspect=fixed;rotation=-180;flipH=1;" vertex="1" parent="1">
                    <mxGeometry x="-28.960000000000008" y="-1055.51" width="53.93" height="45.5" as="geometry"/>
                </mxCell>
                <mxCell id="74" value="" style="verticalLabelPosition=bottom;align=center;html=1;verticalAlign=top;pointerEvents=1;dashed=0;shape=mxgraph.pid2valves.valve;valveType=gate;actuator=solenoid;rounded=1;strokeColor=#2D7600;strokeWidth=3;fontFamily=Helvetica;fontSize=13;fillColor=#60a917;flipV=1;container=0;movable=1;resizable=1;rotatable=1;deletable=1;editable=1;connectable=1;fontColor=#ffffff;aspect=fixed;rotation=-180;flipH=1;" vertex="1" parent="1">
                    <mxGeometry x="-223.97" y="-908.95" width="53.93" height="45.5" as="geometry"/>
                </mxCell>
                <mxCell id="75" value="&lt;font style=&quot;font-size: 13px;&quot;&gt;&lt;b style=&quot;font-size: 13px;&quot;&gt;SV31&lt;/b&gt;&lt;/font&gt;" style="text;html=1;strokeColor=none;fillColor=none;align=center;verticalAlign=middle;whiteSpace=wrap;rounded=0;labelBackgroundColor=none;fontFamily=Helvetica;fontSize=13;fontColor=default;" vertex="1" parent="1">
                    <mxGeometry x="-223.51" y="-936.65" width="53" height="29.45" as="geometry"/>
                </mxCell>
                <mxCell id="76" value="&lt;font style=&quot;font-size: 13px;&quot;&gt;&lt;b style=&quot;font-size: 13px;&quot;&gt;RV31&lt;/b&gt;&lt;/font&gt;" style="text;html=1;strokeColor=none;fillColor=none;align=center;verticalAlign=middle;whiteSpace=wrap;rounded=0;labelBackgroundColor=none;fontFamily=Helvetica;fontSize=13;fontColor=default;" vertex="1" parent="1">
                    <mxGeometry x="-134" y="-957.0799999999999" width="53" height="29.45" as="geometry"/>
                </mxCell>
                <mxCell id="77" value="&lt;font style=&quot;font-size: 13px;&quot;&gt;&lt;b style=&quot;font-size: 13px;&quot;&gt;PG31&lt;/b&gt;&lt;/font&gt;" style="text;html=1;strokeColor=none;fillColor=none;align=center;verticalAlign=middle;whiteSpace=wrap;rounded=0;labelBackgroundColor=none;fontFamily=Helvetica;fontSize=13;fontColor=default;" vertex="1" parent="1">
                    <mxGeometry x="-134" y="-1038.98" width="53" height="29.45" as="geometry"/>
                </mxCell>
                <mxCell id="78" value="&lt;font style=&quot;font-size: 13px;&quot;&gt;&lt;b style=&quot;font-size: 13px;&quot;&gt;SV32&lt;/b&gt;&lt;/font&gt;" style="text;html=1;strokeColor=none;fillColor=none;align=center;verticalAlign=middle;whiteSpace=wrap;rounded=0;labelBackgroundColor=none;fontFamily=Helvetica;fontSize=13;fontColor=default;" vertex="1" parent="1">
                    <mxGeometry x="-28.5" y="-1082.45" width="53" height="29.45" as="geometry"/>
                </mxCell>
                <mxCell id="79" value="&lt;font style=&quot;font-size: 13px;&quot;&gt;&lt;b style=&quot;font-size: 13px;&quot;&gt;MV31&lt;/b&gt;&lt;/font&gt;" style="text;html=1;strokeColor=none;fillColor=none;align=center;verticalAlign=middle;whiteSpace=wrap;rounded=0;labelBackgroundColor=none;fontFamily=Helvetica;fontSize=13;fontColor=default;" vertex="1" parent="1">
                    <mxGeometry x="-26" y="-993.45" width="53" height="29.45" as="geometry"/>
                </mxCell>
                <mxCell id="80" value="&lt;font style=&quot;font-size: 13px;&quot;&gt;&lt;b style=&quot;font-size: 13px;&quot;&gt;MV32&lt;/b&gt;&lt;/font&gt;" style="text;html=1;strokeColor=none;fillColor=none;align=center;verticalAlign=middle;whiteSpace=wrap;rounded=0;labelBackgroundColor=none;fontFamily=Helvetica;fontSize=13;fontColor=default;" vertex="1" parent="1">
                    <mxGeometry x="247" y="-927" width="53" height="29.45" as="geometry"/>
                </mxCell>
                <mxCell id="81" value="&lt;font color=&quot;#000000&quot; style=&quot;font-size: 13px;&quot;&gt;&lt;b style=&quot;font-size: 13px;&quot;&gt;GN&lt;/b&gt;&lt;/font&gt;&lt;font style=&quot;font-size: 13px;&quot;&gt;&lt;b style=&quot;font-size: 13px;&quot;&gt;&lt;font color=&quot;#000000&quot; style=&quot;font-size: 13px;&quot;&gt;&lt;sub style=&quot;font-size: 13px;&quot;&gt;2&lt;/sub&gt;&amp;nbsp;&lt;br style=&quot;font-size: 13px;&quot;&gt;200 bar&lt;br style=&quot;font-size: 13px;&quot;&gt;50L&lt;/font&gt;&lt;/b&gt;&lt;br style=&quot;font-size: 13px;&quot;&gt;&lt;/font&gt;" style="text;html=1;strokeColor=none;fillColor=none;align=center;verticalAlign=middle;whiteSpace=wrap;rounded=0;labelBackgroundColor=none;fontFamily=Helvetica;fontSize=13;fontColor=default;" vertex="1" parent="1">
                    <mxGeometry x="-420" y="-726.9000000000001" width="53" height="29.45" as="geometry"/>
                </mxCell>
                <mxCell id="82" value="&lt;font color=&quot;#000000&quot; style=&quot;font-size: 13px;&quot;&gt;&lt;b style=&quot;font-size: 13px;&quot;&gt;GN&lt;/b&gt;&lt;/font&gt;&lt;font style=&quot;font-size: 13px;&quot;&gt;&lt;b style=&quot;font-size: 13px;&quot;&gt;&lt;font color=&quot;#000000&quot; style=&quot;font-size: 13px;&quot;&gt;&lt;sub style=&quot;font-size: 13px;&quot;&gt;2&lt;/sub&gt;&amp;nbsp;&lt;br style=&quot;font-size: 13px;&quot;&gt;50bar&lt;br style=&quot;font-size: 13px;&quot;&gt;10L&lt;/font&gt;&lt;/b&gt;&lt;br style=&quot;font-size: 13px;&quot;&gt;&lt;/font&gt;" style="text;html=1;strokeColor=none;fillColor=none;align=center;verticalAlign=middle;whiteSpace=wrap;rounded=0;labelBackgroundColor=none;fontFamily=Helvetica;fontSize=13;fontColor=default;" vertex="1" parent="1">
                    <mxGeometry x="-66" y="-891.45" width="53" height="29.45" as="geometry"/>
                </mxCell>
                <mxCell id="83" value="&lt;font style=&quot;font-size: 13px;&quot;&gt;&lt;b style=&quot;font-size: 13px;&quot;&gt;SV34&lt;/b&gt;&lt;/font&gt;" style="text;html=1;strokeColor=none;fillColor=none;align=center;verticalAlign=middle;whiteSpace=wrap;rounded=0;labelBackgroundColor=none;fontFamily=Helvetica;fontSize=13;fontColor=default;" vertex="1" parent="1">
                    <mxGeometry x="386.03" y="-794.19" width="53" height="29.45" as="geometry"/>
                </mxCell>
                <mxCell id="84" value="&lt;font style=&quot;font-size: 13px;&quot;&gt;&lt;b style=&quot;font-size: 13px;&quot;&gt;SV33&lt;/b&gt;&lt;/font&gt;" style="text;html=1;strokeColor=none;fillColor=none;align=center;verticalAlign=middle;whiteSpace=wrap;rounded=0;labelBackgroundColor=none;fontFamily=Helvetica;fontSize=13;fontColor=default;" vertex="1" parent="1">
                    <mxGeometry x="386.96" y="-986.45" width="53" height="29.45" as="geometry"/>
                </mxCell>
                <mxCell id="85" value="&lt;font style=&quot;font-size: 13px;&quot;&gt;&lt;b style=&quot;font-size: 13px;&quot;&gt;RV21&lt;/b&gt;&lt;/font&gt;" style="text;html=1;strokeColor=none;fillColor=none;align=center;verticalAlign=middle;whiteSpace=wrap;rounded=0;labelBackgroundColor=none;fontFamily=Helvetica;fontSize=13;fontColor=default;" vertex="1" parent="1">
                    <mxGeometry x="495" y="-1011" width="53" height="29.45" as="geometry"/>
                </mxCell>
                <mxCell id="86" value="&lt;font style=&quot;font-size: 13px;&quot;&gt;&lt;b style=&quot;font-size: 13px;&quot;&gt;PS21&lt;/b&gt;&lt;/font&gt;" style="text;html=1;strokeColor=none;fillColor=none;align=center;verticalAlign=middle;whiteSpace=wrap;rounded=0;labelBackgroundColor=none;fontFamily=Helvetica;fontSize=13;fontColor=default;" vertex="1" parent="1">
                    <mxGeometry x="492.22" y="-1154" width="53" height="29.45" as="geometry"/>
                </mxCell>
                <mxCell id="87" value="&lt;font style=&quot;font-size: 13px;&quot;&gt;&lt;b style=&quot;font-size: 13px;&quot;&gt;PG21&lt;/b&gt;&lt;/font&gt;" style="text;html=1;strokeColor=none;fillColor=none;align=center;verticalAlign=middle;whiteSpace=wrap;rounded=0;labelBackgroundColor=none;fontFamily=Helvetica;fontSize=13;fontColor=default;" vertex="1" parent="1">
                    <mxGeometry x="528.22" y="-1255" width="53" height="29.45" as="geometry"/>
                </mxCell>
                <mxCell id="88" value="&lt;font style=&quot;font-size: 13px;&quot;&gt;&lt;b style=&quot;font-size: 13px;&quot;&gt;SV21&lt;/b&gt;&lt;/font&gt;" style="text;html=1;strokeColor=none;fillColor=none;align=center;verticalAlign=middle;whiteSpace=wrap;rounded=0;labelBackgroundColor=none;fontFamily=Helvetica;fontSize=13;fontColor=default;" vertex="1" parent="1">
                    <mxGeometry x="564.22" y="-1152" width="53" height="29.45" as="geometry"/>
                </mxCell>
                <mxCell id="89" value="&lt;font style=&quot;font-size: 13px;&quot;&gt;&lt;b style=&quot;font-size: 13px;&quot;&gt;MV21&lt;/b&gt;&lt;/font&gt;" style="text;html=1;strokeColor=none;fillColor=none;align=center;verticalAlign=middle;whiteSpace=wrap;rounded=0;labelBackgroundColor=none;fontFamily=Helvetica;fontSize=13;fontColor=default;" vertex="1" parent="1">
                    <mxGeometry x="566.36" y="-1019" width="53" height="29.45" as="geometry"/>
                </mxCell>
                <mxCell id="90" value="&lt;span style=&quot;font-size: 13px;&quot;&gt;&lt;b style=&quot;font-size: 13px;&quot;&gt;MV22&lt;/b&gt;&lt;/span&gt;" style="text;html=1;strokeColor=none;fillColor=none;align=center;verticalAlign=middle;whiteSpace=wrap;rounded=0;labelBackgroundColor=none;fontFamily=Helvetica;fontSize=13;fontColor=default;" vertex="1" parent="1">
                    <mxGeometry x="668" y="-1038.01" width="53" height="29.45" as="geometry"/>
                </mxCell>
                <mxCell id="91" value="&lt;font style=&quot;font-size: 13px;&quot;&gt;&lt;b style=&quot;font-size: 13px;&quot;&gt;RV11&lt;/b&gt;&lt;/font&gt;" style="text;html=1;strokeColor=none;fillColor=none;align=center;verticalAlign=middle;whiteSpace=wrap;rounded=0;labelBackgroundColor=none;fontFamily=Helvetica;fontSize=13;fontColor=default;" vertex="1" parent="1">
                    <mxGeometry x="494" y="-771" width="53" height="29.45" as="geometry"/>
                </mxCell>
                <mxCell id="92" value="&lt;font style=&quot;font-size: 13px;&quot;&gt;&lt;b style=&quot;font-size: 13px;&quot;&gt;MV11&lt;/b&gt;&lt;/font&gt;" style="text;html=1;strokeColor=none;fillColor=none;align=center;verticalAlign=middle;whiteSpace=wrap;rounded=0;labelBackgroundColor=none;fontFamily=Helvetica;fontSize=13;fontColor=default;" vertex="1" parent="1">
                    <mxGeometry x="569.33" y="-766" width="53" height="29.45" as="geometry"/>
                </mxCell>
                <mxCell id="93" value="&lt;b&gt;PS11&lt;/b&gt;" style="text;html=1;strokeColor=none;fillColor=none;align=center;verticalAlign=middle;whiteSpace=wrap;rounded=0;labelBackgroundColor=none;fontFamily=Helvetica;fontSize=13;fontColor=default;" vertex="1" parent="1">
                    <mxGeometry x="491.0300000000001" y="-635" width="53" height="29.45" as="geometry"/>
                </mxCell>
                <mxCell id="94" value="&lt;span style=&quot;font-size: 13px;&quot;&gt;&lt;b style=&quot;font-size: 13px;&quot;&gt;SV11&lt;/b&gt;&lt;/span&gt;" style="text;html=1;strokeColor=none;fillColor=none;align=center;verticalAlign=middle;whiteSpace=wrap;rounded=0;labelBackgroundColor=none;fontFamily=Helvetica;fontSize=13;fontColor=default;" vertex="1" parent="1">
                    <mxGeometry x="567.3600000000001" y="-632.55" width="53" height="29.45" as="geometry"/>
                </mxCell>
                <mxCell id="95" value="&lt;span style=&quot;font-size: 13px;&quot;&gt;&lt;b style=&quot;font-size: 13px;&quot;&gt;PG11&lt;/b&gt;&lt;/span&gt;" style="text;html=1;strokeColor=none;fillColor=none;align=center;verticalAlign=middle;whiteSpace=wrap;rounded=0;labelBackgroundColor=none;fontFamily=Helvetica;fontSize=13;fontColor=default;" vertex="1" parent="1">
                    <mxGeometry x="528.8600000000001" y="-525.55" width="53" height="29.45" as="geometry"/>
                </mxCell>
                <mxCell id="96" value="&lt;font style=&quot;font-size: 13px;&quot;&gt;&lt;b style=&quot;font-size: 13px;&quot;&gt;MV12&lt;/b&gt;&lt;/font&gt;" style="text;html=1;strokeColor=none;fillColor=none;align=center;verticalAlign=middle;whiteSpace=wrap;rounded=0;labelBackgroundColor=none;fontFamily=Helvetica;fontSize=13;fontColor=default;" vertex="1" parent="1">
                    <mxGeometry x="666" y="-738.19" width="53" height="29.45" as="geometry"/>
                </mxCell>
                <mxCell id="97" value="&lt;span style=&quot;font-size: 13px;&quot;&gt;&lt;b style=&quot;font-size: 13px;&quot;&gt;TS31&lt;/b&gt;&lt;/span&gt;" style="text;html=1;strokeColor=none;fillColor=none;align=center;verticalAlign=middle;whiteSpace=wrap;rounded=0;labelBackgroundColor=none;fontFamily=Helvetica;fontSize=13;fontColor=default;" vertex="1" parent="1">
                    <mxGeometry y="-1160.7199999999998" width="53" height="29.45" as="geometry"/>
                </mxCell>
                <mxCell id="98" value="" style="endArrow=none;html=1;strokeWidth=2;fillColor=#60a917;strokeColor=#2D7600;exitX=0.5;exitY=1;exitDx=0;exitDy=0;exitPerimeter=0;entryX=0.5;entryY=1;entryDx=0;entryDy=0;entryPerimeter=0;fontSize=13;" edge="1" parent="1">
                    <mxGeometry width="50" height="50" relative="1" as="geometry">
                        <mxPoint x="-50.93999999999869" y="-1145.999999999999" as="sourcePoint"/>
                        <mxPoint x="-34.04000000000178" y="-1146.0000000000005" as="targetPoint"/>
                    </mxGeometry>
                </mxCell>
                <mxCell id="99" value="" style="endArrow=none;html=1;strokeWidth=2;fillColor=#60a917;strokeColor=#2D7600;fontSize=13;" edge="1" parent="1">
                    <mxGeometry width="50" height="50" relative="1" as="geometry">
                        <mxPoint x="332" y="-827" as="sourcePoint"/>
                        <mxPoint x="332" y="-925" as="targetPoint"/>
                    </mxGeometry>
                </mxCell>
                <mxCell id="100" value="" style="verticalLabelPosition=bottom;aspect=fixed;html=1;verticalAlign=top;fillColor=#e51400;align=center;outlineConnect=0;shape=mxgraph.fluid_power.x11980;points=[[0.5,0,0],[0.5,1,0]];rounded=1;strokeColor=#B20000;strokeWidth=2;fontFamily=Helvetica;fontSize=13;fontColor=#ffffff;direction=south;movable=1;resizable=1;rotatable=1;deletable=1;editable=1;connectable=1;container=0;" vertex="1" parent="1">
                    <mxGeometry x="920" y="-933.55" width="35.73" height="20.79" as="geometry"/>
                </mxCell>
                <mxCell id="101" value="" style="endArrow=none;html=1;strokeWidth=2;fillColor=#60a917;strokeColor=#2D7600;fontSize=13;" edge="1" parent="1">
                    <mxGeometry width="50" height="50" relative="1" as="geometry">
                        <mxPoint x="1429.0299999999997" y="-986" as="sourcePoint"/>
                        <mxPoint x="1429.4799999999996" y="-1320" as="targetPoint"/>
                    </mxGeometry>
                </mxCell>
                <mxCell id="102" value="" style="endArrow=none;html=1;strokeWidth=2;fillColor=#e51400;strokeColor=#B20000;entryX=0.5;entryY=1;entryDx=0;entryDy=0;entryPerimeter=0;fontSize=13;" edge="1" parent="1">
                    <mxGeometry width="50" height="50" relative="1" as="geometry">
                        <mxPoint x="908" y="-923.27" as="sourcePoint"/>
                        <mxPoint x="918" y="-923.21" as="targetPoint"/>
                    </mxGeometry>
                </mxCell>
                <mxCell id="103" value="&lt;font style=&quot;font-size: 13px;&quot;&gt;&lt;b style=&quot;font-size: 13px;&quot;&gt;MV14&lt;/b&gt;&lt;/font&gt;" style="text;html=1;strokeColor=none;fillColor=none;align=center;verticalAlign=middle;whiteSpace=wrap;rounded=0;labelBackgroundColor=none;fontFamily=Helvetica;fontSize=13;fontColor=default;" vertex="1" parent="1">
                    <mxGeometry x="758" y="-762.25" width="53" height="29.45" as="geometry"/>
                </mxCell>
                <mxCell id="104" value="&lt;span style=&quot;font-size: 13px;&quot;&gt;&lt;b style=&quot;font-size: 13px;&quot;&gt;MV13&lt;/b&gt;&lt;/span&gt;" style="text;html=1;strokeColor=none;fillColor=none;align=center;verticalAlign=middle;whiteSpace=wrap;rounded=0;labelBackgroundColor=none;fontFamily=Helvetica;fontSize=13;fontColor=default;" vertex="1" parent="1">
                    <mxGeometry x="866.2" y="-806.5899999999999" width="53" height="29.45" as="geometry"/>
                </mxCell>
                <mxCell id="105" value="" style="endArrow=none;html=1;fontFamily=Helvetica;fontSize=13;fontColor=rgb(240, 240, 240);entryX=0.5;entryY=1;entryDx=0;entryDy=0;entryPerimeter=0;exitX=0.5;exitY=0;exitDx=0;exitDy=0;exitPerimeter=0;fillColor=#1ba1e2;strokeColor=#006EAF;movable=1;resizable=1;rotatable=1;deletable=1;editable=1;connectable=1;strokeWidth=2;" edge="1" parent="1">
                    <mxGeometry width="50" height="50" relative="1" as="geometry">
                        <mxPoint x="827" y="-827.2449999999999" as="sourcePoint"/>
                        <mxPoint x="827" y="-827.25" as="targetPoint"/>
                    </mxGeometry>
                </mxCell>
                <mxCell id="106" value="" style="verticalLabelPosition=bottom;aspect=fixed;html=1;verticalAlign=top;fillColor=#1ba1e2;align=center;outlineConnect=0;shape=mxgraph.fluid_power.x11980;points=[[0.5,0,0],[0.5,1,0]];rounded=1;strokeColor=#006EAF;strokeWidth=2;fontFamily=Helvetica;fontSize=13;direction=south;container=0;movable=1;resizable=1;rotatable=1;deletable=1;editable=1;connectable=1;fontColor=#ffffff;" vertex="1" parent="1">
                    <mxGeometry x="920" y="-837.24" width="35.73" height="20.79" as="geometry"/>
                </mxCell>
                <mxCell id="107" value="" style="endArrow=none;html=1;fontFamily=Helvetica;fontSize=13;fontColor=rgb(240, 240, 240);fillColor=#1ba1e2;strokeColor=#006EAF;movable=1;resizable=1;rotatable=1;deletable=1;editable=1;connectable=1;strokeWidth=2;entryX=0.5;entryY=1;entryDx=0;entryDy=0;entryPerimeter=0;" edge="1" parent="1" target="156">
                    <mxGeometry width="50" height="50" relative="1" as="geometry">
                        <mxPoint x="657" y="-827.9999999999995" as="sourcePoint"/>
                        <mxPoint x="791" y="-827.25" as="targetPoint"/>
                    </mxGeometry>
                </mxCell>
                <mxCell id="108" value="" style="verticalLabelPosition=bottom;aspect=fixed;html=1;verticalAlign=top;fillColor=#1ba1e2;align=center;outlineConnect=0;shape=mxgraph.fluid_power.x10500;points=[[0.47,0,0],[0.47,1,0]];rounded=1;strokeColor=#006EAF;strokeWidth=2;fontFamily=Helvetica;fontSize=13;direction=south;flipV=0;flipH=1;container=0;movable=1;resizable=1;rotatable=1;deletable=1;editable=1;connectable=1;fontColor=#ffffff;" vertex="1" parent="1">
                    <mxGeometry x="959.2000000000003" y="-767.5799999999998" width="33.8" height="35.38" as="geometry"/>
                </mxCell>
                <mxCell id="109" value="&lt;span style=&quot;font-size: 13px;&quot;&gt;&lt;b style=&quot;font-size: 13px;&quot;&gt;RV12&lt;/b&gt;&lt;/span&gt;" style="text;html=1;strokeColor=none;fillColor=none;align=center;verticalAlign=middle;whiteSpace=wrap;rounded=0;labelBackgroundColor=none;fontFamily=Helvetica;fontSize=13;fontColor=default;movable=1;resizable=1;rotatable=1;deletable=1;editable=1;connectable=1;" vertex="1" parent="1">
                    <mxGeometry x="954" y="-727.68" width="53" height="29.45" as="geometry"/>
                </mxCell>
                <mxCell id="110" value="" style="endArrow=none;html=1;fontFamily=Helvetica;fontSize=13;fontColor=rgb(240, 240, 240);exitX=0.5;exitY=0;exitDx=0;exitDy=0;exitPerimeter=0;entryX=0.5;entryY=1;entryDx=0;entryDy=0;entryPerimeter=0;fillColor=#1ba1e2;strokeColor=#006EAF;movable=1;resizable=1;rotatable=1;deletable=1;editable=1;connectable=1;strokeWidth=2;" edge="1" parent="1" target="106">
                    <mxGeometry width="50" height="50" relative="1" as="geometry">
                        <mxPoint x="874.2299999999996" y="-827.25" as="sourcePoint"/>
                        <mxPoint x="925.4082100000003" y="-837.6445000000001" as="targetPoint"/>
                    </mxGeometry>
                </mxCell>
                <mxCell id="111" value="" style="endArrow=none;html=1;fontFamily=Helvetica;fontSize=13;fontColor=rgb(240, 240, 240);fillColor=#1ba1e2;strokeColor=#006EAF;movable=1;resizable=1;rotatable=1;deletable=1;editable=1;connectable=1;strokeWidth=2;" edge="1" parent="1">
                    <mxGeometry width="50" height="50" relative="1" as="geometry">
                        <mxPoint x="960" y="-750.2600000000002" as="sourcePoint"/>
                        <mxPoint x="960" y="-826.2599999999998" as="targetPoint"/>
                    </mxGeometry>
                </mxCell>
                <mxCell id="112" value="" style="rounded=0;whiteSpace=wrap;html=1;strokeWidth=2;fillColor=none;fontColor=#ffffff;strokeColor=#B20000;movable=1;resizable=1;rotatable=1;deletable=1;editable=1;connectable=1;fontSize=13;" vertex="1" parent="1">
                    <mxGeometry x="1026" y="-1130" width="289" height="207.06" as="geometry"/>
                </mxCell>
                <mxCell id="113" value="" style="endArrow=none;html=1;fontFamily=Helvetica;fontSize=13;fontColor=rgb(240, 240, 240);movable=1;resizable=1;rotatable=1;deletable=1;editable=1;connectable=1;fillColor=#e51400;strokeColor=#B20000;strokeWidth=2;" edge="1" parent="1">
                    <mxGeometry width="50" height="50" relative="1" as="geometry">
                        <mxPoint x="1240" y="-922.9999999999995" as="sourcePoint"/>
                        <mxPoint x="1636" y="-922.5700000000002" as="targetPoint"/>
                    </mxGeometry>
                </mxCell>
                <mxCell id="114" value="" style="endArrow=none;html=1;fontFamily=Helvetica;fontSize=13;fontColor=rgb(240, 240, 240);movable=1;resizable=1;rotatable=1;deletable=1;editable=1;connectable=1;fillColor=#1ba1e2;strokeColor=#006EAF;strokeWidth=2;exitX=0.75;exitY=0;exitDx=0;exitDy=0;" edge="1" parent="1" source="2">
                    <mxGeometry width="50" height="50" relative="1" as="geometry">
                        <mxPoint x="1240" y="-827.4300000000001" as="sourcePoint"/>
                        <mxPoint x="1636" y="-827" as="targetPoint"/>
                    </mxGeometry>
                </mxCell>
                <mxCell id="115" value="" style="verticalLabelPosition=bottom;aspect=fixed;html=1;verticalAlign=top;fillColor=#1ba1e2;align=center;outlineConnect=0;shape=mxgraph.fluid_power.x11850;points=[[0.5,1,0]];rounded=1;strokeColor=#006EAF;strokeWidth=2;fontFamily=Helvetica;fontSize=13;flipH=1;flipV=1;container=0;movable=1;resizable=1;rotatable=1;deletable=1;editable=1;connectable=1;fontColor=#ffffff;" vertex="1" parent="1">
                    <mxGeometry x="1356.54" y="-827.35" width="23.92" height="36" as="geometry"/>
                </mxCell>
                <mxCell id="116" value="" style="verticalLabelPosition=bottom;aspect=fixed;html=1;verticalAlign=top;fillColor=#60a917;align=center;outlineConnect=0;shape=mxgraph.fluid_power.x10710;points=[[0.5,0,0],[0.5,1,0]];rounded=1;strokeColor=#2D7600;strokeWidth=2;fontFamily=Helvetica;fontSize=13;fontColor=#ffffff;direction=east;container=0;movable=1;resizable=1;rotatable=1;deletable=1;editable=1;connectable=1;" vertex="1" parent="1">
                    <mxGeometry x="1424.97" y="-826.2499999999999" width="8.57" height="33.81" as="geometry"/>
                </mxCell>
                <mxCell id="117" value="" style="verticalLabelPosition=bottom;aspect=fixed;html=1;verticalAlign=top;fillColor=#e51400;align=center;outlineConnect=0;shape=mxgraph.fluid_power.x11820;points=[[0.5,1,0]];rounded=1;strokeColor=#B20000;strokeWidth=2;fontFamily=Helvetica;fontSize=13;fontColor=#ffffff;direction=west;flipH=1;flipV=1;movable=1;resizable=1;rotatable=1;deletable=1;editable=1;connectable=1;container=0;" vertex="1" parent="1">
                    <mxGeometry x="1499.85" y="-958.25" width="24" height="36.06" as="geometry"/>
                </mxCell>
                <mxCell id="118" value="" style="verticalLabelPosition=bottom;aspect=fixed;html=1;verticalAlign=top;fillColor=#60a917;align=center;outlineConnect=0;shape=mxgraph.fluid_power.x10710;points=[[0.5,0,0],[0.5,1,0]];rounded=1;strokeColor=#2D7600;strokeWidth=2;fontFamily=Helvetica;fontSize=13;fontColor=#ffffff;direction=east;container=0;flipH=0;flipV=1;movable=1;resizable=1;rotatable=1;deletable=1;editable=1;connectable=1;" vertex="1" parent="1">
                    <mxGeometry x="1424.97" y="-956.06" width="8.57" height="33.81" as="geometry"/>
                </mxCell>
                <mxCell id="119" value="" style="endArrow=none;html=1;fontFamily=Helvetica;fontSize=13;fontColor=rgb(240, 240, 240);entryX=0.5;entryY=1;entryDx=0;entryDy=0;entryPerimeter=0;fillColor=#60a917;strokeColor=#2D7600;movable=1;resizable=1;rotatable=1;deletable=1;editable=1;connectable=1;strokeWidth=2;" edge="1" parent="1" target="118">
                    <mxGeometry width="50" height="50" relative="1" as="geometry">
                        <mxPoint x="1429.000000000001" y="-1070" as="sourcePoint"/>
                        <mxPoint x="1514.97" y="-964.0199999999999" as="targetPoint"/>
                    </mxGeometry>
                </mxCell>
                <mxCell id="120" value="" style="shape=image;verticalLabelPosition=bottom;labelBackgroundColor=default;verticalAlign=top;aspect=fixed;imageAspect=0;image=data:image/png,iVBORw0KGgoAAAANSUhEUgAAAqAAAAFqCAYAAADFp+iKAAAAAXNSR0IArs4c6QAAIABJREFUeF7svXmTZFl55vmcc+7mS0TkUgsUIGm0jGhBl4SWUZvNVxibv2d6hKAksVRlVhUg1DNfYMza2oQQVOVCFaKxbmvTfIVZuiVNz2ilJShAwCAQUMWiWjIzNve7nGXsPefeCM+shcrIjMi4Ec8ti/Lw8Luc+3uPpz/+nndR4EYCJEACJEACJEACJEACR0hAHeG1eCkSIAESIAESIAESIAESAAUoJwEJkAAJkAAJkAAJkMCREqAAPVLcvBgJkAAJkAAJkAAJkAAFKOcACZAACZAACZAACZDAkRKgAD1S3LwYCZAACZAACZAACZAABSjnAAmQAAmQAAmQAAmQwJESoAA9Uty8GAmQAAmQAAmQAAmQAAUo5wAJkAAJkAAJkAAJkMCREqAAPVLcvBgJkAAJkAAJkAAJkAAFKOcACZAACZAACZAACZDAkRKgAD1S3LwYCZAACZAACZAACZAABSjnAAmQAAmQAAmQAAmQwJESoAA9Uty8GAmQAAmQAAmQAAmQAAUo5wAJkAAJkAAJkAAJkMCRErgjAfq/PvHftxv+xawMWx5Qci75Ca99B+F1/n6Q+43XGvGWWLS60ktsdB9/6k/KEd8Mh04CJEACJEACJEACt0XgjoTc0xf/hdvw39dl2Lqti3LnnkDQUbM3mPodc94+eulLFKKcHCRAAiRAAiRAAieewB0J0GcvvMtt+Bd05SlADzJTNAJKBTQocM1tYDd/qHv08peKg5yLx5AACZAACZAACZDAWAhQgN5jS9V1wJmzG9jpcuzYEt3kvu63/5Ai9B6bhZcnARIgARIgARI4RAIUoIcI98edOiigmkxx7douDDQma+fwyqJDdva/6n7jE1+kJ/THAeTrJEACJEACJEACoyRAAXoPzSYCtEOA8sDcFHBtQDA5dkKFa1jvHn32OxSh99A+vDQJkAAJkAAJkMDhEKAAPRyub+qsIkCdDsgVoBugUECel9huPRb5HN30J+kJfVMkuRMJkAAJkAAJkMCYCFCAHgNrdTZgfQosdwE4oJzl2G0U2mwD2+Zc94HL36An9BjYiUMgARIgARIgARK4OwQoQO8OxwOfJYeB0h6N9agmQNcCzgKZyWFViTorsenOdh+88g8UoQemzANJgARIgARIgASOEwEK0HtoDR0UjM/glYfNLJyUBQWgA6C9lPTX8JigxpSe0HtoJ16aBEiABEiABEjg7hKgAL27PG/rbPsCFOiMCFAfRagYJfdJhOaqhA0ZtpzGMn9L9zuXv0lP6G1R5s4kQAIkQAIkQALHjcCdClC/4V9QLER/MLOKp1MFhYAMDiWs8XBmgWBCEp8esLvAuTNTNE3AlptgOX2oe/+nvkIRejDkPIoESIAESIAESOAYEKAAvcdGEBEKGLgwgdMaziwRdBtHlQVgo1DYeikgU0Cxto4f1grq3M927/v9/0IReo9tx8uTAAmQAAmQAAkcjAAF6MG43eWjVIz3DCp5QoOygN6FUkAmvzpgminUXYYmn2E7zHDDb3RPPPv3FKF32RI8HQmQAAmQAAmQwOEToAA9fMY/9grSE142HzKEMIm/ByMC1MMEwCjAd4DSBqqYY7tTsHoCP3mo+40/oCf0xwLmDiRAAiRAAiRAAseKAAXovTSHCjHjPSlOBa8UdNDRG5oM4wFlUYsHdG6ws+sQPDCbTNHWS7TmPryU/Ux38fJf0hN6L+3Ia5MACZAACZAACdwWAQrQ28J1l3deEaC+l5xDYpIOWbqY8fAGWDiLqsrgGo9gPaYaaNQUN7KfwI1wtnvi8l9QhN5l8/B0JEACJEACJEACh0OAAvRwuL75s6reBSp9OfsteUWH5wFeQkRXLCWHyLK9h4bFBLtqA7vqwe7DV/6OIvTNk+eeJEACJEACJEAC94gABeg9An+3Lptrg0aVuG7XUWdv6R69TBF6t9jyPCRAAiRAAiRAAodDgAL0cLge0VkVlrXHmbNnsewcdmyBrnpb98invkRP6BFZgJchARIgARIgARK4fQIUoLfP7FgdUU3muHZ9G0YD1XyGl3czZGf/6+69n/gbitBjZSkOhgRIgARIgARIYCBAATrmuSDBoE4y6IGyBOoO8GaC7bCGG+4+1gkds205dhIgARIgARI4wQQoQEdsXElEEgNmGmilYL0BdFFhu8nQmLOxTuj7PvFX9ISO2MYcOgmQAAmQAAmcRAIUoCO2qghQA6DrpE0nsLMjxeyBarqGug6w2QQ1Ju1vXf1eOeLb5NBJgARIgARIgAROGAEK0BEbNApQDanJhLoFyqpE1wY455AbDR9r2pfYtKXbDffbx575ejXi2+XQSYAESIAESIAETggBCtAxG1KFVB80AMrLSruoUQsoB/T1RRU0WptBl/fhRm18XZztHr3yHIXomO3OsZMACZAACZDAyAlQgI7YgCI+UxSohvY6tfVUIkB9LF4vz70FptMKO9sNzGQDu3qGV5rMtdWD9qNP/zWF6Ijtz6GTAAmQAAmQwFgJUICO1XLR8WkQkMfflGqgxBUqW3SLJtNq6SfvAWOALqTOST6fYuFydNnMLczEPf6HzzFGdMTzgEMnARIgARIggbERoAAdm8VWxxt6ASrL7apJy+7ya3SNmrggL8LTeQsbUrLS2rzC9k6NLCuAcoatoNGoua/DzD1x6e+ZMT/m+cCxkwAJkAAJkMBICFCAjsRQrzdMHVTsCS8JR9HVqQJUCDC9EHU+xBJN0/Up6q6GCR6iMiulsbPwCJOzWDpZr1eorXOmmiprZnrHVe3FS1+mZ3Tk84PDJwESIAESIIHjSIAC9Dha5XbGFL2esvhu4sq7gotL8RL/KS9pU6K1HqbM0bY1VPCY5IBpAaWAhTOQbkqdXaDrOkzmFXY7izZM0eYbdsetqdac7z7y1H+e3M6wuC8JkAAJkAAJkAAJvB4BCtARz4240j5ku4vglJjPPgxUkpCGWNC29eLgxKQsEUJA17UIAShKBRsClktgbc3EBPrl0mEyKdA2FiovgaLColVoMHWhOtM98umvUIiOeM5w6CRAAiRAAiRwHAhQgB4HKxxwDKsCVITn4PWUv3vxg8qjDyjzHMF6hKCiV9SLv7TK0DQSNwpMJgq72wFVplHmJRY7S1RVFuuJdl1AOStQW6B2BmZyv93c9Spk6zpkFbrggSxHQKaWXWg+fvUvmVl/QHvyMBIgARIgARI4LQQoQEdu6ZjwLjnvveczll56XauqVJopvt4fMBwY/5Rev3VL+8eFfTglYlNy67P4mA5LF5RY1ABtvdISD6CCSlXyh/1eC7VEsMbqUf2I+JgsQw7k8OPmQfyaKV8A46Yh7zcJxXHI4vvTqxw2ZM2jl/+OXwpH/u88h08CJ5EABehJtCrviQRI4FQQMBJL00fbpFUP+aKYwSGHUxnqDphunLfXt2uVVxumbkPQxQQ6K9VyuQzKO2RlpbZqtP/qmS8w6fBUzBreJAkcDwIUoMfDDhwFCZAACRyAwP4/4RIP3uckxgYVsnKR5yV26gZZXkKbAsumgzIZXL90MskLtG2LajJFXbe+a52aTqcqhd/46EnV5VoI2Rl1w07sk0//mRQe5kYCJEACd0yAAvSOEfIEJEACJHBvCMiSe9yULMWL7Lw5hqZtgbIE8lJje9tjOkthM8ulR1lquM7DdsBslqHrLHINNDUwq1IXNS/JjeU6XtxyKM/8JF5qJu3Fz/wXekrvjbl5VRI4UQQoQE+UOXkzJEACp4VAasXbC9CUdrgnQGNCIoCiANoloDVgbWpMIaK0qgDngExLoYscL73S4ey5Cq1zqOsO80mBxW6LWUxWtFAmj8v6yGdwZuJgpua6eFbnJXZa11146ptsYnFaJh7vkwTuEgEK0LsEkqchARIggaMkkATofhZibIjWe0CHihjOp+oY4gXV2sTKFvUSWF8rUddNlK87S6CaK7Ti7jSyT4BzHutrE7SLZUw1nE9L7Gw1WNbA2fNz3Li+g3I+RRM6WG3gfemsmgD5huowQ+OnqlOT9omn/08mQB3lpOC1SGBEBChAR2QsDpUESIAEVgkMVTDiKvxrVbDwAXmex7q+UlJtMunL+AaFrlmgLBWKIsOi62LMaOtT17TFcoHggFwUqvS6EK9pIWJWoWsDMlNGoWqDx8bGBja3t1BVFeqmlY5qyKoJgsScShfgcqoaV+hFF1Q+Pdc8/skvUJRyGpMACQxfnw9G4tkL7/Ib/gVV+a2DnYBHkQAJkAAJ3HUCSZgqaK1hXUCWFSnxyHn4vmxarjV8swttgKDTj1MarZOawclrKiJUdtfS5VcOt+nRGAPlDYzP0DWtlAKG9xamSAXEpLtv6wBdIGbiIyugshl2W7lOafNiju1FnrXmLd3HLv0Jl+/v+gzgCUng+BOgB/T424gjJAESIIHXJCAeydXN927Q9OeQmlH0XdFiq97UuTdusWCTB4zv/xYkc17W9VOiUtrJpW5rIj5FpEq9XzmnTqK06LIoQr3yCPFHXpfH5I4drq2Dhgoa8ignk98dCvhshq1Ot7/17PeY2MQ5TgKnjAAF6CkzOG+XBEjg5BAwPiUhifhLgm+/wUT8LcaJDmJy/75l79gmoo8RTSdJjSNEHN68p4czSVxGJ2ovaiW2NHMqekKH1/ZE594JfOrQFkMEAkzs2JYiV+X/dQjQ1RoWLrdLzNCaM8bl55oLn/wztvw9OdOUd0ICr0mAApQTgwRIgARGSmBfgEbp99odzlYE6C2Nz6KYjB2XereoPCYv5RBTKl7LodvSIGT3xa7VycuaziuezXT8/nXSvsmLGqJHNF6qv64D0Eix/NkcTeugUKLzOTxy26HSpliz7/v0l+gdHen85LBJ4I0IUIByfpAACZDASAnIEnxaVhfROAjFfS/oXoveQTuuJCrJknqn0zL5kDWfBOQgJuVRBKhox9Vl+eTVdNqj6z2je9fxKyJ0kMNKCtonEep7wZpEKaCMRllMcP36bkpykrjUPma1cxpNA6h8w7Zmrmy2YXYxbx9/6s8oSEc6XzlsElglQAHK+UACJEACIyWQxGISjK+1vZ4AleM6E+KPCFHZT5bH5XEQozedN0ibz36Jvz/psLSeXJz7caRpLH1W0y2jS+Pd96g21kEbA1OkZfzOWYT+piTRSRKoqmqOG5tLeJQwkw10XvuiONP+j5/6EpfpRzpvOWwSeP1/td4kG2bBv0lQ3I0ESIAEDoHAvgDdF6Ix8WfYJPFn5emeIO09mNbIsnhYidNMAnR1Sz3m01+G5KIU05kSmPYu1Sc7RYl5SzLTsKwvIjdFn6Ytzw0WzQI6EwGqEEQQO4e8yLCz00GqRkkmfpZlWC4tptM1tDZgseyQrb/Dv+Qe6C5e/nOWdTqEucVTksBhE6AH9LAJ8/wkQAIkcEgEtKTyrGS2D2JxLzk+ZravXjypy5iLLsv3ks4en6f4UVkiT0JzP+Ndnog43POOvqrm6C2KdSXQdP+V1UH0mfbKx8SkVJ80R2u7WP5JDs+LtPTfNR7eA5OJgg8Gu61FUVawXsF5jTybwEK7DkZv11ZhcgZ1LID/HJfpD2nO8bRHQyCEoC49+XBn/Kbpuqx54jPfPnFftChAj2Yu8SokQAIkcNcJiAAdttVyS4MA3YsK3fuXPu0fF8kl3tOZlDSEVEZJvKHi5by1fFNKMJJj0r5RuErmfdAIkkqfZGtKPloVoCufMKtidC8LX0SvT57QrnMwsnIvOzrASL1RiRNVgPWyPC/lRA1cCFLOFHmmYRob24k6Ixn1Gp2u4IoNLMPULcO8vfDUF6d3HTpPSAJHQODSY7/SbZjvZCW2EVSFhT3XvP/yd06UCKUAPYKJxEuQAAmQwFESuKU86Oteesh+F2/jXgmn3gP62geJEI0qs08xGh5v2fs12jLttQ1d2fW1ujcNL0dn7MoO4t0dNvHIyvJ/5kP05ko2f/zRClaJP1dqk+YIambbUJkmzLsPXPkKvaJHOQl5rQMTuPrRX2on9Qv5rLuGs6WEqXRo9Tq287e177/0tRMzjylADzxFeCAJkAAJkMC9IiAC1fRKO3puJfb0prJQyZual3NsNxn09C3di7uFarNz4aOX/5Tdl+6V4XjdNyRw6WO/3Ortf8jfMrGYNg1C62AyoM1K/KjOYGc/1X7o6a+eCBFKAco3AwmQAAmQwGgJpHjV9FEWE6r6Z+I8zRRQ132N/fIsFn6C1szhi43mA5/8mxO1nDlaA3LgewSefvyd7Txcy+fYRRVaTGCwWNRoAzA7L3/NcH1pkE3e0b3/E18c/ZcoClBOfhIgARIggdERGLovpRqjQ5p+ilGVRfhYJsoBZQZkZYZr2xZ6MkMbcuxaBVW9xd9oztiPXf2LE+FNGp0BOeCbCFx58p+10+6H+RqWyNoOhVaoW4dykgGlxoubLbKpfJmq0LUaTf7W7sNPf2vUIpQClG8CEiABEiCB0RFIArTvrhRbK0lb0iRATUg/IkAzA1ibYkStAsp5ht3GQps5XLuGDjNXZ7m54XLY+X32f/n9/5SPDgYHPGoCly/+bHu+2MzN7ivIlh7rZYmma2GzAGsAn/XTGwqTssLu5hKYzPBP9i3d45fGK0IpQEc9bTl4EiABEjilBPpsfbn7uAQfTPR9Dpn6JtgoQqWTaJYDJgdsAHbqJEZzDVQ6h3U5GlNgqSsssg33oU99IzulRHnb94DAlQu/0K7nL+Zq92XMPbCeZ9C2QAePLm/hMo/ap/YNygK+BaaVJNwBy/wsXt6ddxeffX6UnlAK0Hsw4XhJEiABEiCBOyMwxHrGDP4oQmXhvYhiNJaMiu2ZOmQ6wAePuksidLaeYbdO5ZtsLeWcgHoBlNMSrTNo1MQt1Jr9rasnq+TNndHm0YdB4PO/957W3/hmvl610E2Lc9UUO68skJkKWaGxdAsgBzqZ37H02ASTrIBtNqMAbZDDFWvY8UXY1Q/Yx596blRClAL0MGYVz0kCJEACJHCoBERgZj4V1RcB6qLklPJL4gVNH21aSyFRC+8tjNGw8p/r+9ADEFdnLiv3DrEeqXzIm7LCtsTYmTW7i7PaTd/ePvbJ/4ttPw/Vmqfv5FcuPNxu+B/lVbgBJQlHpYLdCVDeYDKZY7lcIJ8F1NJ8Ic/hrIZ3OYxRsM02sgpxLuuqwGZn4acP4OX6vP3ola+OJoSEAvT0zXveMQmQAAmMnoAJAblPFUllSV08nx4meULV0O5zv1fofjtRcSdJrKhFFmzkIN4kaR86HK8knlQK2zsPU8ywbY3ryvPdB5/6ewrR0c+ce38Dn3/83W3VvJBP0MFgGZs6SCOJWPs2TlT5ViRbP3+DfFWSOdlHh6gmfrFyzscEu8Zr1E5BzdZRY6195A+/PYrEOgrQez8XOQISIAESIIHbJCAf1lksij+0DVVJhO71rU9Cc3+T3/vn0oYUDgZdTGRySqcfZH2bUpGiFqWRTk0hxuB1Zg3X7RnXVW/vHv/0X1CI3qa9uHsi8OwTv96WW1/OH5hauE5Ep4fXdq/7WNSf8X9Dq9zUlnbY9lvrephMoes6BK+gjIYLDrsOmGz8pHtlJzeNPt89+Zm/OrbL8hSgfFeQAAmQAAmMksCw1D50cRIxubetNGlKHZ9UTFCSTUkLUVma19KCVBxNWVy+Hzo8KdUmr1TfM1SErc7XsKgVqul9qDvd/MtL32Qd0VHOmns36Gcee3e7Fn6Qz9V15AhwXRGT54IWj6YI0fRlKn6pinNV5qT0ALNpakpESQx4lnCTAm3bxja2VaZgAuA6j6IscWN7F+V6gWCmeGWr9bq4X+fFHF27QFEGeLsZdKbQ2hJO3ZY+3dOMkuCXeSl3lry08gVOOpDJJu/LbXOf/9DlLwyu3NeETgF67+Yir0wCJEACJHBgAuLxFCEpn8spDWlPgPafbIMeHR5N7z6SD0gRrdakDkrKZ1GUiodUIkUlKFS6Kok7VM5sdIbWBninkWU5bNOiMWfddv6QffTylyhED2zD03FgCEH90cVfbebdt/KZuYHgACMr6lbEnwFUl2KVBwe95M9FX7wIOgvoFOwc53GsbytKtYAyQKYVXLtEaIFJUcG2DYIJUBnQOEDlgFbzOHedrZHpFhIaHUWuTsLxIJuMJfchjsn1HchiKIwSz63Bpnlb+M3L333Dk1OAHoQ8jyEBEiABErinBOSDLsV7pmVM+SSMfepf41NtX4CmIQ+JS1Y+x+UDM6ReStJffnW5UxKXdmsPXQLOA+WkwM6iRVVO4ING0ylp9WkbVejtLte7YdZ87DPPUZDe05lx/C7+mUff1T6Yv5KbxY/gO6CYA0upyqD6Lz5SXym6Nvstejj7kBHxxosfcZjXMsVtKjemY10mEbLyeoZyOsFiuYyP28tdeG1QVBW2d7cxm6ZJ3NQd7js3x/VXdlAVBxOfUbz2SX9OxLHq4he6Ic5akgM39dv8I09/nx7Q4zcdOSISIAESIIE7ITAIUDnH4AEVSbq6rT6Tz+9BXA6CVLw/+x7U9Hos4dQfKEvwZZlh2VqUE4OdpUNWmugNLTMD7ToopdC4AJfNsXAz+OoBu2PP2IuX/jPjRO/EwCfgWPF8Xr3wq815/b3cLF/CNABVBSzFa+k1vPfJqxnDPofZmjyIe1+T9P7yexJ+siqvobxGpi1cm74YdTZg0XQwhczpPHrq2y71kc+LgM3NGtOpRlVUWOy2KHMDZ9v0pe0Am7z/HIqYAAjd7IlPeZo74IZ+CI9c/sEbOjnpAT0AeB5CAiRAAiRwHAj05ZbiZ+jQEX6Io0tNOQevTBxt72WSD90kNtMHfVAe4smRxyRokxCdVQVe+qcWZ88aWOvjh7xkHZuswI2tBWZTHf8ucXiZKdFZYGfpUc3OYavRrsvWug9c/RqF6HGYKvdgDP/hY+9pw41v5hvVLnwXMJ8bXLvhYpvNPM/hZd18qOIQp3Jcw47hIPIjcZ3Ju59EqIg98fjLvI7hIiqgaaRdp4jBANGSk0mFxVYNoxVKWV6XSg5S89YHZEWGnYWNYSWTWQFvbayee+Atvn9ED7v4PovhLJIc6Ayum3fgf7ryHQrQA8PlgSRAAiRAAseWwJCEtCo+42CDQohJEWmJcegbr+KHeYoXlcQkE4PuVgWotPZM4lQ+8GPXmVLBdQFKzudCzDZe1A5rZyZougZBspgtUBqgrYHZLMPuwiKfTNCqCba7wu3iTPfYM1+nED22M+nuD+zqY+9uz/vn80nYTEXkp8DuMrkw14o56uVO9E7K3BxiJ4fJmgQoegHap8ZJklJfMiyJvTS3vcxn5dF0Ij4lEQnQDpDV9Rg66vpmCw2QVxqdtKjVGRqbmjHcybaa8ydjiuEwXhKiFK7rn8C//AwF6J3w5bEkQAIkQAIjILAau5k+mG92vsSl9t5TOtzOfhZ9lKkr3tK0LDmcQT5Uhy39mlLsQ3/R4YP4VeVylNRnNEB1HptL47vsfPvYlecoREcwn+5kiJ9//OF20nw3n2Mzhm9aJT+pU5f8P/ddjKAcPJrpC9P+FVPVhpvjkQe//n6ZsZWg0KRc+xOkTmDx+PhFa/+8wxrBynROb4rhzXG7j/GyUl0iXWOoZSojEwH6G1e/Sw/onUwkHksCJEACJEACryKw+snev3irCHYOKOcZNncsTHUODWbYXmqn8o3uQ1cpRE/irPrs47/W5ttfy++fNVBWmmhKK02pupDHkkuyWJ7J0nu/ZC1Flsa6pbhVWUlI9xDLoakQn1/L3o73Xn6eAnSsxuW4SYAESIAExkBA1ERaz0z/dxgSomKEXWbQBiltP4HPpmit1MbJXZlNzNYS3Qef+cptFWMcA5HTOMZnH324meHFYqK3kKkFvOspSFxnTCzanx9JsI2bEgXouO3H0ZMACZAACYyawCA+9zstSeKIFA+XGD9pl+gCUFtgsj7F5m4DlVWY5BV0W6OzBktzxi3M+fbDV/5uOmoUp3jwn3vs4XZqv5dPzDacT9nnNjoEU5F4KfGVAjdSeEha7T5YBvpxwUwBelwswXGQAAmQAAmcLgJ9/FyIkX4poySWceo703vfxgSl6bpC00qCE2LxcJgCi0WLTBJS1jawvdNAV2vYdYVdYmKKjbe37/vXf8p6oiOZTc98+J+3DxQv5Xr5o5SQNgMWsvou6edBIxdBOrSNHeJBlSQZ3RyjOZLb3RsmBejYLMbxkgAJkAAJjJ/ALSnArxahDpn0krcd8kKhbVOZnKwErEsr9lJnVDKV5bmWpjcmRxNy7NgKavqg2w5r3RNP/TWTlo7xbLn66Hvas+bFXC+/j4kGZiUgxZU6r2B9HkeeeYkCTU0SJPHIRg+oQtZ3EjrGt/eGQ6MAHavlOG4SIAESIIHxEpByTf3o+8JOMclkiPJLZXQsbOuhNVCV0t8baC3iknxRJAFqcoPaOmSFwbJz8W9ltYa6kZNPUfvKq+r+9n1PfYFC9JjNlv/wsV9p/I1vFvOJhe8WODMHNq9Le0wpfZTBD701VRcLzccann17V7kVSdZ5jVy2Y3aXrz8cCtDRmIoDJQESIAESOCkE0jJ72mINxL4Uvvw19pVXHsp6lEWOYF2sFxr3jeKzwLJt43K8xAnKCr48aqVglIqitcwliFBajVZw2Tq2Xemvh3n35DPsPX8c5lCq8/n9vAw3YBFQTRSWyxA92vOiQrtoYHQe54HTLvZLH8TnfkcuCtAD2/LZC+/yG/4FVfmtA5+DB5IACZAACZDA2AiIAJXkEtmGeo7ydKjnOHi2JAkldl0alGrfxcYpjxC7L/U1R/uEFd33pZfdrQsoplPs1gFLb5DPH8BOZ3zAtPvAZQrRezVnPv/4u/s6n9vQCmil01A0sIbxWWxFKUlHJoiNXXxdBKjrXebSK33vm8u9uom7cF16QO8CRJ6CBEiABEiABG6HgIjKJEBlaVVFgbEqQOWVJDr3xacOZq+NorT9DLHFYkpESZ2Z0ghE3EpQfCR2AAAgAElEQVRNxSwz2KkddK5g8hmWbYjL81ubNYqNn/AvdWft41f+rLydcXPfOyPw7BO/3pZbX84fmC2BLjUviAIzRnkaGEk6EgEafGyjKfOik1jgoVNQUMjcakb8nY3nXh5NAXov6fPaJEACJEACp5KAdFESb5fIRWmHmDya0hM7iY0kJIfuS70QDSItpfWntFqUUk0uis3kNr21KGSA0tICVMF7WZ83aFoHrQsUeYnthUcxO4fNumof+aNvUoQewSx85rF3t2vhB/lcXUeOEJPHxIqrXu89b/dQckmW3sWG/XyQrlq5uELjnOmLtx/B2A/jEhSgh0GV5yQBEiABEiCBNyAg3kzjJMtZxxg/EaFBW4hnM2590cc9WRm9pUlo9q3mYxa0LLnHupA3tQ8dehsGVEWG5dLGU87mE2zuLJHnGmUxQVd36DBFlz/kN/3Z9gNX/18mKh3SrP3shV9p59238pm5gSAezEySyOTrQwbtvcyCveYDQ1/0wSM+dDuSHunGyzJ9GqTTPnUPGulGATpSw3HYJEACJEAC4yUgHlDlpYGReMBERNqVmM4+QWlYfu9vc5AaqQi5LMUmeTp4TeMHet+zPnrSxDlqgarK0Er6fGZQS3/PTGO59JgVqb1j0wLldAPbHWzIZ2bT5t3jz36DXtG7NL0+8+i72gfzV3Kz+BF8BxTzVOdT6QoyD3ToYCBtj/ZLLa1mu8e50ovP+DUkOr1T2tqYuyFRgN6lCcbTkAAJkAAJkMCbJyDCI2WVRCmxl1DUx3QmZRkTkIZNxMYgMkWrZL36EB0qovSmhCQAuQaaJbAxL7FbN6l+aAZkUtNJPGhNi9xkMEbDujZ6RW9sL6EnZ7HdGLvwa9pX5+3FS39DMfrmDbu3ZwhBXb3wq815/b3cLF/CNMiXAWCppcaniR7QVG5LZoC4RW8utZRsryDL7sNckdky9EzfW7s/wNiOwyEUoMfBChwDCZAACZDA6SOgUhJK1Jord7+fVCQvDtVCk1SN3s5elQ7iNArTuICrokcsiRWPIteoG5uSlBQwmRToWoe2dcgy8aoFSKWf7WUSwUoDk6qECln0nBZ5haYLWCpjd0NpltnZ7olLX6YYfZMz9T987D1tuPHNfKPahe8C5nODazccCq2Q5zmCuEMhyWdit2S7PXEZC9BLowFZdk994OX1GK4hSUmxDmjyhI91owAdq+U4bhIgARIggfESWBGfUYD2S+fR5yU5Q9E7tio+X1uADkuwMTnpFrHqg0du9k8ssYfeAYXJ4JyVvKS9ElDVtMTWdhOvncMgk5xsqWovXXnkFNM5tvwUN5rK2+oB++Snv0Ah+gazL9X5fD6fhE2IgzOfArvL9E1jrZijXe7Efu/xy0OQKggq2iLOA6l1IHMg9oAXD+ggQD2c8VLeNW4UoHfw9mcd0DuAx0NJgARIgATGTWAlgWRILIo31Hu1JPbv5m0l5u+WVp7psNX99+uD7rXLufV8/Tn2va/p+ORVkwSndPW09K9gVQGHPP7U+lz7yKV/oAh9jRn4+ccf7ut8bkqPgFjj0yotPmmpeYDcd6lU1l4TgiGW9+aTxS8ie8ln0cK9LQbbjtf7meZrmvUistM8S4HL8vxa9na89/Lzb3iDd3T3FKDj/reToycBEiABEjidBBo1x0vNOW/Wf6r90Kf+jNnz/TT47OO/1ubbX8vvnzVQVpbYAenk7lVK+JLSWVloY7JYrFzwqvJZp2c+UYCeHlvzTkmABEiABEjgrhDwysAVMyxDBm8Kt9UoE8oHusf/8IuS2n8qt2cffbid4cV8oreQqUUMd4hbrHiQltHT6nl6YcwZ7HfDwBSgd4Miz0ECJEACJEACp4hArFVpApa1lHBS6JChcVMs/MzV5kH30Ut/d6qW5z/32MPt1H4vn5htOO9ifKcdOlTFWM7V7kWp+LwkgZ3m7ccI0PDey8/fGgR9Ey4uwZ/m2cN7JwESIAESOMUEFIqiwLVrNe6/f4q6bdF4A5evY6HW2kc+/e1TIUKf+fA/bx8oXsr18kfwFihnqc4njJb6WshFkPZiU4RnjAdVUn4pldw6rRsF6Gm1PO+bBEiABEiABA5MQGoCIQpQyZjf3W2gFVDMgJ0aQDXDrl33jXmg/cDlL53YGNGrj76nPWtezPXy+5hoYFYCrcR9eqn1KZ2upJySRIHuF5m30rlKqdjJigL0dZOQ6AE98HuTB5IACZAACZDAiSWg4J1GJt680GI6ydA1FuLo0xpw0sonX8NOZ1Bj6t3kTPtbn/7KiRKif/zRX2vt5jfy+cTCdwucmQOb12OjKeRZFgvNx011e92qVjscSbY3BSgF6In9J4I3RgIkQAIkQAKHQSBTOaxtY5F7J7Uuc+lvDhipaO8CrA0oZxMsbcCurD3PztlrtVU2mxufbTS/+8m/rQ5jXId9Tulw9JlH/0VzPnwrL/EKLAKqicJyGaA9MC8qtIsGRqr8Kx+LxzstDQRSwf+hvJWUu6IApQA97PnK85MACZAACZDAiSEgdSyHJJBYQD0uMht4ZLG/eXwm7ZRWWkxK7KNDAatKOClLhMotwrr94OW/H40QjeLzwi+16/qlbL39IYwKaHWq9Sk57sZnyF1KOpIWm0G7+LoIUNc7RKXDUdxG3MXobkxkxoDeDYo8BwmQAAmQAAmcJgKq77sUUi3LIAXqlYlJN0mKOSjV7nX1ifpsKKoeTOza1DoPNbsfL3Xn2g9e/eqxT1gS8Xnpgw+35ybXsrL7J1TexrJKUWD2AtxI0pEI0CDdjMT7GdBJ68zYZlO8nwqZtH3vcZzmUkwUoKfpHwzeKwmQAAmQAAncJQLJgSc1LotYZD1VuRSvX7cX9xj3CBrKa4g4i+0lo2gFrDZYeCCbrGG7hTOT88aaNfv+P/jrlL1zjDYRn1cv/lx732Q3M911hGWNXG43pJJK6T7T8vrgGY6F5mXpXfq893Skt3surlBZmh96vx+j+zzKoVCAHiVtXosESIAESIAETgAByeJOPtDUsz71JZdnHl6npJuht7l4ReM+qdMicu+jN7AThZYZKB2wbC2yYoIWFba7osvPPGReagr78af+6lh4Rj9x4V3N+eyHhV5ew9kC8J1ozyzev/Y+eXyTizcK0ti+9JZWmyZIvGNiJZvTwuH01mGiAD0B/xDwFkiABEiABEjgKAmIAHWSbAQfl5tFXGZD7/J+Wd7JPjogyM+Kl1B+FU9hoYDdXambqWBlsT5odCpD0BqtZIjnE9Sh9E5vdB/81L2NE73yP7875Itv4IzqMLEZfCcxnanpkw4dTOxutF9qaTXbPcbE9uJz8JQGFTvBn+puSBSgR/mO5bVIgARIgARI4AQQEEEpSUdQDjokX+jg4RQdJklJMTZUPKFmX4CmOMjkCS0N4DrAOiArZVnaYGu7w3Qtg/NS2ggweY7GVbD5fe4Ve9Y9efVv74lH9Pc/8p563ny7fLCwwNYuKpOh0zoKaxHgq8lWN2e7K8iyu+5jY0WwR6+n/DAJKYZwSDkq2QYu8vxa9nbWAT0B/07wFkiABEiABEjgrhK4KdZR7XvyhgXllHQk/+9dn0EjaB+XpQeh0dTAxlqO5aJDLmK0BaZrBZaLVNrJxHaVgDY5lphgYe7DNb/WPXH5S/ek3/y//dh/W+vNb5bn1CYq1cTM9+THVCnOc4jp7JfVJdtdxKfp+8DL61KSSVqYynEpbOGOGkreVZse9cnoAT1q4rweCZAACZAACYycQEomEjmZhJcst0evaBRfSYamOpfJ+ydRkkmT+vgTPaGZgW07lCaVbZJV6bYFJlUO5xyC9ygyoF4C8kut5rDlWVzrJu3FK39/Tzyhn/3wL7Zn8VJu7IvIdcqCl+hPLyWopM5n1JMOUqZKBGi6fwEj7TdTVrwkJokul/ulAKUHdOT/FHD4JEACJEACJHC0BIaC6nLVoZzQqkNvP7/mZi9fEqn7W3w6/G3lBPH8/VJ18jBmcBJtqQo45C5Aa29m6pVaN09+9ltHVkv00x94uH1gssin/p8QFtuoygp10yHPczgEdLZBVeXwVhrCr4jMeG9p2X5vKf5oTXasrkYP6LEyBwdDAiRAAiRAAiTwZgj4EGDyEi4/ix9uWYf5Q/bRTz93JEL0kx98uN3ovpPfP+3gmg6TMsdiZ4myNFBKobMW2iTv8OoWvaG9N1g8ooO3+M3c70nbhwL0pFmU90MCJEACJEACJ5yAZOEjn6KpWyB4TIoSdetQrZ131+rM7OKse+zKF6VO0qFt/+5j76zVznfL0lhkvsNUcrIs0HVAXmTovI7dj5yWjlB94lHMmk8tOE9xBaZoEwrQQ5uaPDEJkAAJkAAJkMBhEBAButt6VEWBQjmEzqGQgExl0KoptroKW+qMw8ZPdI9+4j9ODmMMcs5nH/+pZYnNqvLbKJyFuF8lmcpoDasKWIkL1RZBSfujsF+s/pT3gacAPawZyfOSAAmQAAmQAAkcHgEVMCk0mtojyxWaOsCYLPair5sW87WzWLiAVnrP52vNb376m4eyNC8dkp5+4ufthr6mp+4aCuehW6AwBl0wsLFUUwuvpTVnqglgXErOEg8gW3EyCenw3iQ8MwmQAAmQAAmQwF0lIFnmXoReCSwaIJ9IR6USXeuQZxohpMed3QadNyjX7nc3ulwtw0yXaw92v/P7f3pXSzl95uJbm7XwYjGDQxmAZhfIiiJ1g4oeUKmKmkovSTckyYpnJ6RURYF1QO/qW4MnIwESIAESIAESOCwC4k3USsEYKX+ksNu0sB6ophm8dQguwLbAxnwKaz2C15BIzKyYYqduAGOc10Z7U0pvIyy7ornwma8d2EsqntA//si8M/WuWZdYUBGYVuIcU/kliQEV0RzLMvV1QSlAKUAP6/3B85IACZAACZAACRwKgVRbMwRZxnbIcx1bLC2XAVUFOOmupDME52EbD2OklGiOrulQFgouBNgMaLyUkDLw2Ry1La3PJghqYjoJ2dRFqNugvKnaj17+m9cUp5c/8t81aL+b5f5Hfq3YzSosYHeAifhX3VBySQCsdj9a6fxzKGzGcVImIY3DThwlCZAACZAACZBAT0CSkFIDUNGdqR99epY2WfqWDPTYeQmpGPywBC4F4kX8dNKRKBbR13DIYmtRiSGNuUyx0H5fhhQaThkXk4pUrjttgJDZ3ANZ6HKldqHVLjIs0zX646QL0tAJKnZJkiL0KvRl+oFM+t3fXBL1VNmXAvRUmZs3SwIkQAIkQALjJ/BqARr6zkypA2gSlukxRV+mjkxRWEoMZuzGJF2ZepEauzgNwjOdK7bS7BOHRCdGUasUnE7eVxWyKH6dSTGecZNL9ceo2AN+8HYmAepUiMJYtsKlVp2ndaMAPa2W532TAAmQAAmQwGgJJEGZNhGTry6sOXggxTcqsZjiMRW9J73bRYlm3kOFJEJjX8zo+QxRdIoXc/Bkpoz1JFRjK00Rs9JqM7YiTcJUyi1FcRrPlc4Rf8TL2ZebF+G6L0ADchGovW4drRnuYOAUoHcAj4eSAAmQAAmQAAkcPYHomey9i3GpfcWTOXgtRZOmdqHSiz4lBMWsdJWEaxKgScAm9SmlklKiUDrq5i3u1S+hRw9pr3lFfFqlYLV0PpKjUsklOZfsJ78PwjeJ0HReeY1L8MyCP/p3D69IAiRAAiRAAiRwYAKxFFN0LybvZkC2V1cziVAbRaV4NaOg3Iu37JfFhxjSm0bgRT4iaJ/iR3uxuN+/Pp3EBIXM5inbPQrg5EkVkZpiSFNcqopn6zcRonGcqQKUl4KhexGhB8Yw2gPpAR2t6ThwEiABEiABEjilBFZdh3GJXFyb0nlzf1k+RX/ul0DqHZh7HklZMk9xn7Kcn0onyZa8pLLc7uOSe9r2RWzs5i5JTb6MOwbtgFjkKcWYAlnf8chDqe7mnptRpZZxvD6+Jseezo0C9HTanXdNAiRAAiRAAqMmIAJmSOFJAnK4nVsSe/quQ/HVvh2meC0lF0nkaSoOr6JXU7ypMYFJ+72sdTlsiOmM+4YkR1sjS/oBuh+HvBZDSX0VM+pl87pDMO2QDN9nPIlQzqBADygL0Y/6LcjBkwAJkAAJkMDpI/AqAbq6zB7jLvfWz1Oi0bDc3bfAlNhN2QYBGj2hKYIzLqmL93P1Gmk/iR1NJZ4akx5Faqbs+v4SoQCC6b2oDkGW2lc1sRdPqd7zzp4+y6U7pgf0tFqe900CJEACJEACJ4FA7/rcj/GM6uamO3tVtaOVepx7SUcrHtSYVd+fRiqODttqVntMLLrFC5sOEhmbEp/EJZqE1mrBz9QL/jTHf1KAnoQ3Hu+BBEiABEiABEiABEZGgB7QkRmMwyUBEiABEiABEiCBsROgAB27BTl+EiABEiABEiABEhgZAQrQkRmMwyUBEiABEiABEiCBsROgAB27BTl+EiABEiABEiABEhgZAQrQkRmMwyUBEiABEiABEiCBsROgAB27BTl+EiABEiABEiABEhgZAQrQkRmMwyUBEiABEiABEiCBsROgAB27BTl+EiABEiABEiABEhgZAQrQkRmMwyUBEiABEiABEiCBsROgAB27BTl+EiABEiABEiABEhgZAQrQkRmMwyUBEiABEiABEiCBsROgAB27BTl+EiABEiABEiABEhgZAQrQkRmMwyUBEiABEiABEiCBsROgAB27BTl+EiABEiABEiABEhgZAQrQkRmMwyUBEiABEiABEiCBsROgAB27BTl+EiABEiABEiABEhgZAQrQkRmMwyUBEiABEiABEiCBsROgAB27BTl+EiABEiABEiABEhgZAQrQkRmMwyUBEiABEiABEiCBsROgAB27BTl+EiABEiABEiABEhgZAQrQkRmMwyUBEiABEiABEiCBsROgAB27BTl+EiABEiABEiABEhgZAQrQkRmMwyUBEiABEiABEiCBsROgAB27BTl+EiABEiABEiABEhgZAQrQkRmMwyUBEiABEiABEiCBsROgAB27BTl+EiABEiABEiABEhgZAQrQkRmMwyUBEiABEiABEiCBsROgAB27BTl+EiABEiABEiABEhgZAQrQkRmMwyUBEiABEiABEiCBsROgAB27BTl+EiABEiABEiABEhgZAQrQkRmMwyUBEiABEiABEiCBsROgAB27BTl+EiABEiABEiABEhgZAQrQkRmMwyUBEiABEiABEiCBsROgAB27BTl+EiABEiABEiABEhgZAQrQkRmMwyUBEiABEiABEiCBsROgAB27BTl+EiABEiABEiABEhgZAQrQkRmMwyUBEiABEiABEiCBsROgAB27BTl+EiABEiABEiABEhgZAQrQkRmMwyUBEiABEiABEiCBsROgAB27BTl+EiABEiABEiABEhgZAQrQkRmMwyUBEiABEiABEiCBsROgAB27BTl+EiABEiABEiABEhgZAQrQkRmMwyUBEiABEiABEiCBsROgAB27BTl+EiABEiABEiABEhgZAQrQkRmMwyUBEiABEiABEiCBsROgAB27BTl+EiABEiABEiABEhgZAQrQkRmMwyUBEiABEiABEiCBsROgAB27BTl+EiABEiABEiABEhgZAQrQkRmMwyUBEiABEiABEiCBsROgAB27BTl+EiABEiABEiABEhgZAQrQkRmMwyUBEiABEiABEiCBsROgAB27BTl+EiABEiABEiABEhgZAQrQkRmMwyUBEiABEiABEiCBsROgAB27BTl+EiABEiABEiABEhgZAQrQkRmMwyUBEiABEiABEiCBsROgAB27BTl+EiABEiABEiABEhgZAQrQkRmMwyUBEiABEiABEiCBsROgAB27BTl+EiABEiABEiABEhgZAQrQkRmMwyUBEiABEiABEiCBsROgAB27BTl+EiABEiABEiABEhgZAQrQkRmMwyUBEiABEiABEiCBsROgAB27BTl+EiABEiABEiABEhgZAQrQkRmMwyUBEiABEiABEiCBsROgAB27BTl+EiABEiABEiABEhgZAQrQkRmMwyUBEiABEiABEiCBsROgAB27BTl+EiABEiABEiABEhgZAQrQkRmMwyUBEiABEiABEiCBsROgAB27BTl+EiABEiABEiABEhgZAQrQkRmMwyUBEiABEiABEiCBsROgAB27BTl+EiABEiABEiABEhgZAQrQkRmMwyUBEiABEiABEiCBsROgAB27BTl+EiABEiABEiABEhgZAQrQkRmMwyUBEiABEiABEiCBsROgAB27BTl+EiABEiABEiABEhgZAQrQkRmMwyUBEiABEiABEiCBsROgAB27BTl+EiABEiABEiABEhgZAQrQkRmMwyUBEiABEiABEiCBsROgAB27BTl+EiABEiABEiABEhgZAQrQkRmMwyUBEiABEiABEiCBsROgAB27BTl+EiABEiABEiABEhgZAQrQkRmMwyUBEiABEiABEiCBsROgAB27BTl+EiABEiABEiABEhgZAQrQkRmMwyUBEiABEiABEiCBsROgAB27BTl+EiABEiABEiABEhgZAQrQkRmMwyUBEiABEiABEiCBsROgAB27BTl+EiABEiABEiABEhgZAQrQkRmMwyUBEiABEiABEiCBsROgAB27BTl+EiABEiABEiABEhgZgR8jQP17Lz9v3uiW1J3c77MX3uU3/Auq8lt3choeSwIkQAIkQAIkQAIkMCICFKAjMhaHSgIkQAIkQAIkQAIngQAF6EmwIu+BBEiABEiABEiABEZEgAJ0RMbiUEmABEiABEiABEjgJBCgAD0JVuQ9kAAJkAAJkAAJkMCICFCAjshYHCoJkAAJkAAJnBQCOuzfie9TmoMC1Mrf4xP5403b8HzYMT1f3U2F/rXhZHsvKiDotL/2SHtl8DAIyPZek/EEaASl4JSGR+YClAK0hvwdMnoVFJw3WGZZWCJDAxPcyvhVPya5SrqSjFT3Nzvc80mx5+3eBwXo7RLj/iRAAiRAAiRAAndEQORbJiJRJJwWeTY8JpGW/pJE2yBUfXxF/poB8MgzhZ2dDvNZBXltsWwwm0/QtjW0CjA6IIQkFbXWsJ2cMwd0Dhc8dO6x3ViYfB3erLnlUoU8m2ttDGrnELIi7FjoNp+0/+rpP69e74b/zWO/7s5lL6uZf0nl3RYmSALXBQ2vAaddVNVG7tkBxqczOaVwmkUoBegdvYV4MAmQAAmQAAmQwO0SiP7DXlwOQkw8jnub8ng9L6Z4JcWxqU2A9wG2A/KiQAgKXddhMinRdjW0VlGA1lZ8lwV0vo7GGuT5mlvaVltllanm2FqY+olnvja53Xu4df/Pf3hmzxedUU0L24rOLeC1v0mAyn0XNrlrrQYFKBTMnkc4OpXj82vZ28N7Lz+/MiFebR3WAb3TGcvjSYAESIAESOCUEZAVcadk2RswofdtiqgMOq2692I0aRMPqP5HROvASvRKpuPiedMETMoC9bKFUhp5WWDRNlCTOVpM3cLPVJffp7dq3Xz86l++rjfzTszwv12cdtlykc0LGZNB4wKc3Kd2CDp5QLUXD6iCFs+vChSgFKB3MuV4LAmQAAmQAAmQwO0Q8Eqhk3DKXoCKODM+xKhK+auP/5dYS/ES+hivKX+NXlP5Xx8a6h2QaaBeAmtTcSya6OWsXY5QnvHXm6z98B999469m290b5ce/YVuI7thJuFlVbgWbhcoSxGYJo5dvKAipOWORFwbiTmAjq8NsaG3w+6k7MtWnCfFkrwPEiABEiABEhgJAfGASkSmbDGyU2I1h0SdlSQk2S8lBKU9U5JSiMlBOhRwzmGSyw4dFkvAVIDLz2LLb7Tvv/Sd8rBxPPPoLzbzfKtot7+Lc9OA0AScW59ga3MZ85Wip1eSnQa3rXhtfdHfTVyLP+whHtvzU4AeW9NwYCRAAiRAAiRwcgkMiemSVjQkGq1mwA+vJwG6n5o0ENGqQtM08WlWVQh5iW1r/I7baC9c/YdD9XrKNf/tE/9Nje3vlevzDrlaIHRLKMk36lKu/CBAxQM63Eu8j5DHbHul2v0415Nr5te9MwrQU2h03jIJkAAJkAAJ3FMCSryYaUl6SEjaG0+MAZUM8ShNe/GWlt9Xs+ODMzDVOhYqx7Umt372ju6xP/jL6VHc1+UP/Ew9tZvlfWsau9svoiqBzABeEqJMhuABH7PdU/hAFNGDkPbJMUsBKt5fJiEdxXzlNUiABEiABEiABKL62heg8vRVNUGjy7CvoznU7VxJe/bI4NQUS1TYwax97Mo3D325fTDcld/56ebB6U6h7S60bRCUjWKzKJLoDNEDmqV6oMohevoklGBPPtMDGr9KJEDMgue/CCRAAiRAAiRAAkdHIMsybO92mM0LOAQslx1msxK2bWAkOamvlynl351XsKqEz2ZwIRPhaXfDTGF6n3vsD/7vIxGfIQR16Yl/Vp9TPyyKdhMSySnCea+IfkQnRU2T+JTy9YCLlUtFQw8pR6mOqYaC5RI8BejRveF4JRIgARIgARIgAQWtMnjv0XqPrCjg4WC7DrNJhq61UBaoqgyLxsOpOTqzjlbN/G5XNI89++UjWWpftdNnf++XurD9D9m62UEl4QMulVUakqRS6SgpI5UyjpQUu0cqQj9sQ4elGAO6J0lP52ygB/R02p13TQIkQAIkQAL3kICC9gWMMVAqYNktUE0y1LWF0lJYHlhIflE+RRPmtjPn9Ga31n7k6t8cenLRa0H5xJPvWa43367uq2oslw2qLHlo9zp9Rj+n+G3FAzqIS4lbTQL0phCDvUqmpzcDXhhTgN7Dtx8vTQIkQAIkQAKnk4CCQilr6zDao5Hl97mIEoXaA7s+g54+4K4ts/axz3z3yL2dt9rk6u/9SphvfRMbZlcKecLaviB+1JApXjXVWhrqLQ2F81Mf+CF8NQrRPiX+NLfhpAA9ne963jUJkAAJkAAJ3FMCIjShDJzrMMsMtHeodwFdVmjLc+8DqI0AACAASURBVLgR1ptHLn/9UDoWHeTGP/3BX2/eor9fmMUPsDbJYV0Da/okqbjcLnVJ05mHjHcRnoOXL/Z2kg5IQwX9fr+DjOWkHEMP6EmxJO+DBEiABEiABEZCIJZgMogtNGUZuyimgFnDdlv5LWy0jz7z3D1Zan8jfH/0wV9cPlDtVHn7Mmy7CZ8PhfGT+JRF+MGztxcXGrPfk/9Tuj3FTkih3y+WmhqJwQ5hmBSghwCVpyQBEiABEiABEngDAirE9u5ZVWIHc7zSVM7NfrK58Ad/PjvO3D71wffUbyueL3P7cgwXEM+nxIKKqNwXoNLnXjogpce0AJ/2E6GaBGjoa50e57s93LFRgB4uX56dBEiABEiABI4hgSFmsR/aHfYlX02yiWfss3P2SxSlJB2p3ymPTmWAytwyTLCl5u3jl79+z+M836yRrlz8+XpDvVxWdhOZd9DB9J7NFPcZ22/2AjT1sk9xnyaIYB1qnoZT7f0cPMWsA/pmZx33IwESIAESIIGTQCAYBEkCksQZqXekpF5l6k0+9GTfT5YZ1olfnbUdQkARO/94GKl86R2KLMdu3cIYoA3AbF1jZ+HRqhIqP4NlV7ranO0+fOlLx26Z/c2a9lMXf61+q/t6OfXb6FyJqpyjW2xFltW0wI7UMpWk+F6L7ycfSfGlLHWB6nm/2WuetP3oAT1pFuX9kAAJkAAJkMCPJSAeySJ65tLSsdSsTAI0uulCaoWZPFXDyVK85rApHaCUQtuICNXwVl4PKAsFEaa6VFh2AUunUasprDkLm52tP/TU8Yvv/LG4XmOHP/7dd9a4/q1yUk7h2g7rswpbN65BF1JGSsH1sZ77Xk+BKeXpKUDpAT3IjOMxJEACJEACJDB2AitKMibQxKXhpDQlaSYoDadSH/bYkEh56BBfSa0TlYc3QOek93kB7zQypaOIzZVDYx2WHVBuPIBX6rJzs7fpHbfefeRT/8dovZ6vZfJnLryzOY9XirC8Bq0Ra5kaJ605HVzfJWkQ8rEj5yrnVTU/9vl0gPHTA3oAaDyEBEiABEiABEZNQIqjR2EZtWTchmXiQYDG1pESKrrnAU353OLlFCUlWezLGignJZQusLPbIZcySp2DKdasN1N9bTfrLv7R8SmndBg2e/bRn63vK3ZKW19DaFusVxq29ZGPU8mTPMTCSgJSTFgSJzOz4NkL/jAmJM9JAiRAAiRAAseVgMR5Rgdcn4sUNWi/vC71KkVo7seCpgV6SRwKysMZm8SqhI7KMr3R2GodsvUHsavX3DI80Dx+zLPZ77ZdLj/5cLPR/GOxrrYROiAzGsr7KD47bXoBKhQDMt8L0JUSTXd7PGM4Hz2gY7ASx0gCJEACJEACd5FAWnYX92dA0CkjewjvVH3B9JXQz6hUQ8jhtEfQEiuqoM0cDhW269bqtfPqla5on3x6PNnsdxFnPNXViz9Tn3UvlxPVIA8W3iVOyQsq/ubUu1NLfGy/PL/iXr7bwzn256MAPfYm4gBJgARIgARI4G4TkF7sWTqp6m4qmzR0i1wtki7xoUPNS8njtqrADTuFrR5of/vS/1fe7dGN9XxXPvrLzfTGV4sHpxbWuoS3j2GQ0kxR8PfKPnqg9+MbxnrLBx43BeiB0fFAEiABEiABEhgrgUGArvYu7+B1EkhD8tGQHx97nIcMOuRAyNGoNX/dnGkvjLiU0mFZ7nNP/nw9rV8oK7VEJolbfe3PoUWnFKhPwpQClHVAD2sW8rwkQAIkQAIkcAwJpIQjWYfX8GEGbQzqbgdZ4eC8lFICfAdolWGnsTDVHL5cx1Zb+sbf31y88tejKRx/L/A/ffEXmgfc84XUCfUemJQ5mmUXKwoUsxyLZYdMn+I+nFF7pyDkWFUhFuxPyW3y/Fr29vDey88P345e04R3RO/ZC+/yG/4FJZ1fuZEACZAACZAACRwRARVgG2C+PsHmZhvLLk3mBZR2aOsaWsSRr6DzNSxajaWZ+G01q5+4/JVj3SrziOi9qcv8+4+/O9YJ3ShdzI5fm1W4caOGyoE8z2KpptO8UYCeZuvz3kmABEiABE4lAVliL8oKi8US01mFuq6TQxQGdaOQT8/ZoDfw8o7W2dpDzQee+hN6PA8wU556/OHmreGFQi2vibMZVVVCWwPvPSza/dIDBzj32A+hAB27BTl+EiABEiABEjgAgboNqKYGu7WLy8LWz9GFNeew0b7v0pcpOA/A9LUOuXLhp+sH8u3SLzcRmhazao62bWEyyYo/vV5QCtC7NMF4GhIgARIgARIYCwGpR1lIhF2mcK0F/Oxt+Kedc81Hn3muGss9jGmcUif0bP29YqYaWKthYqP4hRRpGtNt3NWxUoDeVZw8GQmQAAmQAAmMgYBC1waEagMLteZuqPP1E5e+OB/DyMc6xs8+9nP1un+lLJSDURbBLbkEzySksU5njpsESIAESIAEbp9Ap+boyne4a81a89jVv2Ji0e0jPNARn3vi3U259bXi/MzD2oDU3PR0bvSAnk67865JgARIgATulEAsI5O2vqtl/ySJCinefvOWOg7tHRN/T3+I/dVvc7v19KmqTeqyM2wicLzK4SA/pRSQtx65qtV69zuXvzq5zUty97tA4N898TN12fygrFQj1gGCBETovjWqFGrqDbgyv1LZrKGn/DCJbn/OvP7wXy2EU7emm2b2q+Zzmuey3+0/DgJUCvWnObvXiwvXzTvCe698l2WY7sJ84ylIgARIgAROEoGVjjbxozN1tezFJKC9CIpbPz99rH0Yi73Hj1sdWzTGtpjiC+tbNMqJ5ANd6keaTGIFk1ANzsfs6cIYdN7BSoHzMkPXWMynJWzbQTkP6W+kNdA0QDGvsAwzbLZTW+cPth++9AV6O4/BPHzq4q80b3FfLyZ+F50vUJZraBbb0PI1QeqE1jVM36jKpA6ecZM541R6QUFafR5chO53ZJLOA1paDdy0yTWDEkGcXpFO9mlLbUV1f32RroNMvZ3HoSB/vJcg9UDlvEmMX8sewm9e+fYbuofvyHfMOqDH4F3AIZAACZAACRyMwIoIXZUBqZ72UGB79WP91QJ0uHDq0pjOMngw8zxHXUupHkApoJxW6LoObetgcg2VF1GQKhGjnYtJRXKKqjLYXjrk0zW8vK3gJm9tPnD5G0wuOpiVD+2oP/7dd8Y6oZNyCtd2WJ9V2LpxDboA8kLB9fNh6KSUFKiGfMWIX3juWIAmuTi0CtX9F6YkdkV4Du2aRGDKDO3n8vDFSg0C+PYlqHhWkwBOc94EpIL0wcApjWv5Q/jNy9+hAD202ccTkwAJkAAJjJSALBsOniHRBUlcxo/q6NFMbtGblsNji8vhxVWvVkIQVBIDyidvVKEMmrrB2rp4xDq0slqbAZm0KYKBbxVs06DQLnYush0wWa/wo80aYX4/rtt1F2bv6C7+mz/lUvsxnWXPXHhncx6vFGF5LXqtq0kG42wsUu/6pW0v3z56LZjE6ErnoIPe16096Ve++Aze1pu+Og0as7+eCFKnVS8fk0d08Iy+mcfo8Rcvau8ylWuKCJUTWqVwPXsI7738fQrQg9qXx5EACZAACZxMAiIClBchqNKyumQ1r4rQ3rmz+gk6eEmH5froU+pFRnot+kGhvPRcT8vywVlUVYa6s9AZUDtAG2C5BKZlgSCeVmOgtEFrNbY7Y9vyjN4Na+1Hrn6JwnME0+/ZR3+2vq/YKW19LXZMWq80bOuhDOCUxH0OsZ8i0kL8icvjMb73gDe4El86nGH1y9IwG/tp/KqLRGdlXC6X7fYFqAjWNNvli1ua+XlfkarTwA3zNvzmJQrQA1qXh5EACZAACZxUAjoYGJfHD1+nHbzyCNr2MXO9ltx3dvYrjekjN35oK5EP/cJmzDvZjxmVD2Q5nwseRVliuWwixrX5BIutJYocKCtgpwHy+TqubRu7485qnz/UXrjy/1B0jnDSSZ3QjeYfi3W1jdABmdFQ3kfx2WnTC02JuwzIfC9AZZ4cNIu+F6C3euhX0aXZmeKbZRuuNXyBEo9lChu5/SV4Ea9WZ2mhX1mJhobU5ZdNluA39dvwyKXv0gM6wrnMIZMACZAACRwiAfGAGh/TfZJYjALU9d7QdGHxC+05muKHdUqwkL7rcclS2eQF8mmpPsbiydKofAjHgzW8iA9ZktcarqlhtMckN9haOtT5BF1xrv7tp75P0XmItj6qU1+9+DP1WfdyOVEN8mDhncRYqt4LOswZqXKQKh1E7+erKi28+dEO/svhiFvPJyEhUYD2O6x6W+X6cRzy6qBIb+NRhLVVRT98eR/4vSSkKEDNW/DIJcaAvnlrck8SIAESIIFTQUA+gGPMGmT5XeLh+sz2FZ/NkGOxHw9q+kxiyRaSpfteVOhGVOhQkSl94ovAzUosFx10niHLC9StR1nNsbW1i+zMT/jreGtz4Q//I1tmnqAZd+Wjv9xMb3y1eHBqYW1akx6ShFzKVNvTnCnk+MBr8NHrni6QXI83l0Lan45pp5U0u/6S8peDhgCkL1z9mfvzSRKSR0pC2jQP4b1XKEBP0NTmrZAACZAACdwNAuL5SQJUlgzTB/GqHtgvydR7N+Nn+JBJnDyhToL8JAZOd9EbetNqagCcVSgn69itPWpnUM7uw6Iz3qlJ/YHLX2Q5pbthyGN4js89+fP1tH6hrNQSWZDyXCuxwqr3jg/e9TsSoH2dp+iN7xOCVsTmXnb88LeVuNFhvt+JAB3eP8M5dNTBUogqS0lIFKDHcHZySCRAAiRAAveUgEjIwfcUYzZT/nv8ifU/lYeyHmWRI1iHEJKXSULmiqLAom2BXMNK3c6sQlN3qMocITg438X1e681ulChxboN5QNq287ai0//BT2e99TyR3Pxpy/+QvOAe76Y+u1YD3ZS5miWXZxnhdQJXXbI9EG9n3IP+1UcZPa24l2fZrDWxjkqiW3Bq5jklmUZmqZBWUk4iItJcF3nka2+AVLR0OTWfDOPPcYoZPvVg/1i+zlu6Lfj/ZdZB/RoZhuvQgIkQAIkMB4C0nFo+BDtxafUMBxqJaayMjZmM8fyOmUSn61FLK+Tl8lr2kXHp4HWBYLXaLoWxXSGVmfYaYKbnntb/T/86+fYo308M+OujfTff/zdsU7oRulidvzarMKNGzVUDuR5FsXgnWwGGk3jYt1Yp+RLkpSBqrCzU0NrBaPLKH61MnDeIi8z7O7uRk/9bJLDxxCB5OE/SCek2AFK+5jEl3yfaaVfluE39U/g/U//I5OQ7sTAPJYESIAESOAEElgtYyPxnBDxmUXvT1wylYVEE+BtF4uKt22IH/BZCcjntjhJrWSx50A1K3H9RoNiMkEw63hpJ3Ntdr658MxzXGY/gVPndm7pqccfbt4aXijU8prkpKGqSmgrnkgPC2lScPBOSEoHdFI7dqJhrUfdAFmemh6YLEPXehiTI89KbG5tRdFZVhkWiyVy8d5LK65YveHNOT1X99sraq8sbEyn3/sLfAA29UPhty79gK04b2eycF8SIAESIIFTQqD/RH21+IwVGuF9C2+B6bpC06b2mjHs0xRYLFrkAZjOZli0HRqfoVUzdNn55ncufZ1di07JFHozt3nlwk/XD+TbpV9uIjQtZtUcbdvCSN0idXAvqAhQ8cYHOYUWIaqwXIZYDH93VzLTDapyit3tXUxnEwTXom46nDtf4dq1GkUpyXRvqBFf9/bSCoFUhBAB6iFdOPc9oCJA3+Yfefr7Qx/a1zzPnQQggK0438zU4z4kQAIkQALHl0Dqo50+PtOHsZbEEdjYy9s5qecJ1Fa6FE2xudtAZRWqooB2Dawz2LKVDdVblS3faj/8if+d4vP4GvuejUzqhJ6tv1fMVANrdYzRBBZSpOnAY1LGQGcaXdOic6m2rHhExalqpOxXp5GZHJnOId+knG2gRPDGjl6xGdeBN+0VMm9i3dxOYkDjikKqkytZ8Fv6bXg/64AemC8PJAESIAESOBUEBhE6SFA3lJtPhbYzgzYYWEzgsylamyOY3DZdp5WZdh+8TI/nqZgmd3iTn33s5+p1/0pZKAcjnbfc8o6W4CUsJM8VsiL1lm+tRVFOcX2rwXR2FkrPcGNz6cpiaqT9q3hdi8Kgs0voTMG5VBLqYEvw0vs9fWETwRnb0PbPZfVgx5xrP3zpb8s3QkYP6B1OKB5OAiRAAiQwQgJvopWhE6/SPMPmjoWpzqHBDNtL7VS+0X7o6nPMZh+h2e/1kD/3xLubcutrxfmZjzGYB+2EJIlDpcrQdR06+f5kcvz/7Z15jxzHecafqj5nZmeXR6jDBxwnhpMgceAAAfJHvkA+QoAoyGFblkRKZhJEAQJ/gkCwJVmUKNFOAOd7BAgQBHZgIZYPOZLsOHF8CRK53GOO7q4jeKu6d4fkShpyZzk7u08DxHBna6qrf1W9/cxb7zGFwtik6J35iNncRdLo9foLV791bC3yFKDLXo08PwmQAAmcUgJx226mEuB+YqT4vy5H4u0Zr+/gddCjrOu7jbDY626/rVhquuP2Otryvkti7XZVnMXNaYEmu1A/ceW772vVOaVTycu+CwJff+rXp3n1y6JUFXRw4Lz1uL28plgXuw3uLllYItHtUvIzTzHxGiOXAf1zmKj16i+f+/6xFZ2zV0oBeheLhk1JgARIgAQWQ0DEp7he3lIesNOD7bZgFKAqBASFow2YkLrTMZF2/P2+D2erZyVnp3JwUos9VzCy1Sg6NMS2K+RZP+RFLFMF56rg6ykR7WWWQKonSu7ExjvYzKFJexir826kHmyefO7VlXiwL2aG2MtREnju0h9UF9xb+cBtwjmPsiwxHU9DSqR+r8BkUqEsCoybCrosUUvKJsk5myj4iUGRx+AjVSjcrHLYwUN4t1qr/+ql76/MFyQK0KNcYeybBEiABEjgQAJBgLYViEIKl1AXUEffS9UmiW99yrpSgwi120VzypN337IpIjRm9dzP7BmCO5QPwlLyeGalhvMKdWNhvQ7J5F1diXsnGuMxGCiMdz0sciT5EMj62Da13UV/eumlHzOPJ9fxwgn88998eqo23yrWSg9XTzBc62F7c4w0lfReSVirknVBkjVJVfksy9DLUmAsvqNAI/XY8yF27Lod6XP1pRdWyy2EAnThS4odkgAJkAAJfDCB/cAfaRtTuGQxKljVMaA2CFBJdm2ir5wvWqNoFSRn3u5eSilNu2dNjY815T1yreFrt5fHs0sgX4vGVUCqE9S1RSJBRmJkzXqwyRmzYwbq+rion/7H1XqgfzBztjhuBK49/rvVWf127qdvI9VAX/LMIoHzNqxR+WfEKi+3gwNsBaylKYzuY5JfwDuTpLr4tTdX0jJPAXrcViPHQwIkQAKngIAOCd/TaPnsDp+F2urQU7hg4UyjZVM17ZZ7+3sVo9RFgIpEDQK0FaHBVy7mxYZoWdsA64MMdchPE1PPSAacnQmQlHmIbK9NaUzS0ztG1xdf+e/eKcDPSzxGBF55/JPTc+Vmgck7kCqu/R4glV47gZbJDkH4hqZQFkNs36zgyofxS/dA/cQr/7EyW+63I6cAPUaLkEMhARIggdNCQIqnZOKqGXbSYzSwRwa3Z/EUq4+UdRE1WbXpauSRtV/D/aDAIeHX+ZUmOoW1NvjYBSG6lmC8a1EkgCszvOOGaIqP1p999rWVfYiflvVy0q/zxcu/UQ3MW/lQOegayKAxrdLgG1qkDbZuTmI5WJ1j2xYYFx9tPvvS6/kqc6EAXeXZ49hJgARIYEUJiHiUQjAascJQ8AcNIlS11k4piymJrqUupiSY2T9ucf/srJ0+1rS+5VCxUoxOU4nfgEOKJElD/fYqWXdv6wvVX7/wGtMpregaOmnDvvKFj0w33LvFhq1QSAoGPcR4PA6BcmfP9WCsxvVJCjP8eP3Il7+98l+aKEBP2grm9ZAACZDAqhDwSQwoapVjeOlEpES8+xROiUo1MdA9RLLLq7wv4lVCM2J0vIhL7ZNgME3Efw6S6NuhHOS4OaqhJEUNhrhRJdbl56rLV77FOu2rsk5O0TivfeHTVbn1g/yBvgGcDZWNtFTkSjNcH3vY/q81n7ny5kpbPrvppAA9RQubl0oCJEACx4WAWDxDDfbWn1NMnF26Tx2yKLUBSCJAJaXSjAD1iM9fFeKDY3olJ++JxRRpsJbKe0opTK0yqjyDzSpJ6uxsdfnKN+njeVwWAcdxIIGvX/qdaa/6vyLxW1jrA9s1UOl1jNKHm0eff+NEiM94/x7iYC34Q8DjR0mABEjglBMIItR7JEnM1SmBFiG3IWQ7XUNrHSq9ZJmGVh5V5dHrJagrG2ppW2ch1YrWhj3sTCoYlUHl69g1eWOSdT3BevMkBecpX2WrefmvPP571Rn14zxJdlAnPWy5h+rHnv/hym+7z84GBehqrk2OmgRIgARWm0CXB9TG/IayXS6HMRZrvR6MaWCdQZomqMY2tAlenFkSRKmI0eFaiaoxYuVEpTI02RB1dmb66PNv0Mq52quDowdw9dKnptptZWOXTS9f/dGJcxmhAOUyJwESIAESuP8ElEeSAZUkincpUpUi0Q7G1igyYHcElCVgZAceGdJ8gMlkBOMbZCWwtraGzXdH6K8/iOtT3fi1B9VNv24uf/lfKT7v/2zyjCRw1wQoQO8aGT9AAiRAAiRwWAIS3W4kQl0BmR6ETPLeTJAoA50AWQ7UNv4bTQtsnP0wdqoJGhgUgwzv3tg2w+FDamsEc+mrP1zJRNyHZcjPk8AqE6AAXeXZ49hJgARIYEUJSFCRyxS803B1Bu08UtWgSBWmU4M0ByR1vCoHGDXn7XZdeFf24IpSTaytn372VaZPWtG557BJQAhQgHIdkAAJkAAJ3HcCYgGVHJ1JouGlxrvOoJTD7tSg13/Abk+NSno9vTXx1aVr/0sL532fIZ6QBI6WAAXo0fJl7yRAAiRAAgcQSLxHISk+NVArYMsCk3QA9D/i//xLb4TCgzxIgAROLgEK0FWf2y5x3kyhunBJkt8Ekt/59imOVUf2j9kfbi8j0rU6oM3Meff6uuNc7wc3ZurjQQIkcDQE3vt2vPN+Vu/RWPtb71Gn4mf3m3e/7/qUWkbxiEnl5SepbOThlVQ50rAqhfNF+H3uGxhJtp327SQd+Lo4l7496jdfvPqNE5Pr8Ghml72SwOoToABd5Tls05h0lyB/6ztdGKrXOQ0VyofMHi7WXZa//l4eCIk8KkJ6k1CRpBWFYWG0Dw+pMrL3wJGk0KHtAeC6knjdw+f2Jj6W2AsflnGpOBYK0VVehBz7Mgl0wvEg/SjvSR5NqYWu0yzk23RO7l8pfgmkSQJTVdBaQSMJSdvld7Yx8N6iVxRQ3sEYA2s98jxFbSySokRj5b0mBAvJFrqxCZT2SLVBXQNrJWCnQKYS1I2T/wB5ju3GwSQbDtnDfnuSokkTlfSHzVPP/Au32Je5kHhuElgCAQrQJUBf6ClnROisrUJ0nTyckqD4ZkXovgCN7SXzcxSDIgRFku4d+6pzZsih4/Bz92v5Kb6l9gRw7Hm/rz2rq4heedB1wrg7b9TD4fN8JQeugw++D+JNefAORndvOudDEve6dqGkX68nfwviXS7J3ItMIc9zVFUd7kkRmsNhrD8NZ8I9LAnflZZo9QS1aeB0ApWkUKmCbSahBKZXwyA0k9wjzTwmozF65TrqcebSdA2SIn7XNEoNh9Wjz75JsbnQhwA7I4HVJEABuprz1o46VguRI8hHvW9RDAK0VYltmeXYTrTf3i/bR9iM5tSz+/MHbbPvKU+xnAL2vVZQKyyDdbNtE08TBrAniqXknohfGWOo7cxXcuA6mPs+2PsiF+6omMg9fpGMr1IlSP5CFAWQKBUE5nQKDIcZptMGiQJEa/YGgLFSyVKjcS58bjjso5lWkO+LjbEwBugPUzTGoJHNEgB5qjCZaKS9X7W7pvBNkumxbXzaH6rdCaq/ffmbjFRf6WcMB08CR0eAAvTo2B55z+LfqZy4SolVUXw7za0iND6DDrSRdBaS4KF1gCvmrGidvRCxqsrjTbb2xZ9r9rjVt9SFscTt9f0TBOtnK2KlD4UoPnmQAAncPQHX3oOd+Az3cuvWIndnnieYTm0Qms7IdjnCFrkkeBeRmWogLzXeue5w9rxssTtMKodykGI0MkG4isjVUo2obpDm/VB5SCLWoWTbPkFleu5PXv55/EbKgwRIgATmJEABOieo49hM+wSJlfJ0GlZbOPGp1AY+WB/b3blZAdpuk3dbcNE2In6i0tbc4tsZraftVc/4grbeonvWFolkjX5oUZAGERp8Rl3r7yn+op0QbQMT9gYXT3KrcD2OpDkmEjieBG758nbAN0kRmyIixX9zd9tgMEjDhUwmIi5TmMaiaTz6azkaUweBOq6AQS8KVLF0SoVMpzKkxRnsTJRNi3XvVakqn/omgZ64wly+8s0TVaP6eM42R0UCJ4sABegKz6dYQBPJnxeEn4MNAtS21tB4YcHja09Iyv+jUPTi1LX3u5kApHZFBB+88PsYxXq7z6Z0Kg+/JGjdNtK1FaHyTtzql4jYKD6lbYiBbX1TO+xWSwGU+D634OmCwHUw/33Q3b/dl8LwdU4snWFHJEacJ1mB8bRCkuXQSYFp1UDrNOTflCPP+6jrGmWvh3E9dnXT6H6/H7bq68YiSXIoXXqLUtUmrT5/9Tv031zhZwaHTgLHiQAF6HGajbscSxCA4UEiVkQVhNxe5pO2r86Sue8PmsimdytNDbRYPsNDqz3Ep9Snwbc0CkIRp2IdbYOPuhUTLJ3RB7TzONtPwBLHFERqK3JTyffXjlfErQhXad8ksY+2O77OpNMKXwD4c/wiRA53cJAUSbLv3X1ZlPvIKg0jAhMZjMoxFr/NjfP2xs5EZb11NW4kSKgXouLH00mIjE/zEqOprf7+pf9kDfW7/BvM5iRAAvdOgAL03tktCl2thAAADCVJREFU/ZMhQrW1ZMjDJ1gdZ6LT91MySbDSflBSt/UOiC+XWE27KCbpIIND0gpQkao2CtDZbf32oWc0UOkURslnUvjwL7EOqfIhdCH6eMohgjMIT0kPJSkBW0EhOQHFCjpn1LOas928/bEdsw6sYtaFEEcoXw4TuT/D7SsWzxRG0i4peTf3RmW6QVo9+QKF5dL/WHMAJEACdxCgAF3hRSECtJvAuPXWJVKKQUIiGpVxKPIM3lh4sWZKG0kAneeY1DWSuIMPyQRYG+kvgyT3k1yAWZHC2Qo68agqj35f9suB6cSh1ytDTr9xuYY6G9ja5Mr4fnP5K9/lFt0KrykOnQRIgARIgATuBwEK0PtB+ajO0W5xRwtIuxXuu8TyncXRwNQulLsriyg+a4PgA5bn0WIqaVgGaxJHKxGtYlrJwlaeBB8kaY5xNUWvP4RpYI2TZC45rGSyLwdqWyfNU8+9RtF5VHPMfkmABEiABEjgBBKgAF3lSZ2Net2rapSGSISwRQeLNPFwpkGWK9S1DwI0LWLOP4lDytotfJUm2BxZpL0CqlzHjZExje57p9dU78xD6mdv79Zf/OqrzOm3yuuFYycBEiABEiCBY0KAAvSYTMQ9D6N1iozhCLPiU7bTHZyrQ/6//rpCVceUR0qaJjlGkxpa7JnlGja3xyjWLpiJzRKTDMznX/gv1mK+50nhB0mABEiABEiABN6PAAXoiVgfXZqkLro9BigomODjaa0LW+5TA/TW+9gaVVBpCd8bYlMUabHhxpO0+ruvfI8WzhOxHngRJEACJEACJHC8CVCAHu/5uYvR7efqjBk+7V5d9xB6lCaofQKDHlzaR20yTLOB28o3mqef+QZ9OO+CNJuSAAmQAAmQAAkcjgAF6OH4LffTB1Q+ub2spVQzKdZSbO0aJOU5VBhgZ6KdyjYkqTQtnsudQZ6dBEiABEiABE4lAQrQZU97l9jy9nHcLi674u1tSu4gNEP999s+KO3aKkUhL6gGxlKus7yAzWlhTXrePnXlWyybt+x55/lJgARIgARI4BQToABd5uSr/YzsIW+npOSUMPW9DPIxubzkSpKQolAW0+tQh13STsuhtIbXGlVtUPRKNI2FMxZZksJJVZQ0w6Yt7Q31cP30i6/R4rnM+ea5SYAESIAESIAEon45DIdrF3/bbbifqtJtH6abU/3ZUNKkrbm+t33evtdZN/fKBkllIScCVDRqTCov+TprYzAY9DEajUOapd6gj0llYPUQO3pYf+6l/6HF81SvMl48CZAACZAACRwvAhSgS5+P1sTZbpvvDcerUN9djihSZ4WqvC812zWsdlK4CMYYiTNCmRQY1QZVWqLpf6x+5JnXKT6XPsccAAmQAAmQAAmQwCwBCtClr4coQKWsZnfIBjtCRaMUPtRgl3rtJpiroxZV0C4L2/MWdbB6loWCrT20SrDrS9zARv34Kz+n+Fz6/HIAJEACJEACJEACtxOgAF3ymjhw2138QX0eK70HxWkAJf/23UPhRJwC5SDF5o0pJGv8YJDj+thBn/3N5o+/9D0mkl/y3PL0JEACJEACJEACBxOgAF3yyrjD8hmsnxpepe3IYkJ5BEvozBGCljzGtcfZszmaymHU9NCUH24eeZ5VjJY8rTw9CZAACZAACZDA+xCgAF3m8pjx+7x1210sna3oVA635/bshixb8DrRaJBiXGeYZB9qPvviW7R8LnNOeW4SIAESIAESIIEPJHBYAWo33E81o+A/kPN72J/F91M8PMWYeeu2u0Id0i3dsu3euol2KUFt8AEtMcUQu8m55tErb1B83uNU8GMkQAIkQAIkQAL3jwAF6P1jfeeZxL+zDYIP2+6QbfcoSZUSAQpk4vepgLoCyhKoGsBYQOUiPnswOIdNd6F59OVvU3wucy55bhIgARIgARIggbkJUIDOjeoIGrb5PmOezy7yXTSpa5PNRzlqaqC/BuyMACMR74M+xpVBk5zDGB+uP3f1VUa7H8H0sEsSIAESIAESIIGjIUABejRc5+41bqfHvfW2imYwiorfZ/cqeT5rE7IyAfk6RpWGUQP43seaP/3Sv9PyOTdtNiQBEiABEiABEjgOBChAlz4LKgjP4AnazoYYRoMAFV3qZKsdSMsEY6PRJOsYuwHGZtA8ee0HFJ9Lnz8OgARIgARIgARI4G4JUIDeLbGFto8pl8KhxLFzPxl9J0B7vRLvbE5hU4Vs+ADeGaUozny8+cwz/0bxudC5YGckQAIkQAIkQAL3iwAF6P0i/R7n0aHiUbSAuk6AzqRnmk6A4fkN7DQZtmwfpvhQ/flnv0GfzyXPG09PAiRAAiRAAiRw7wQoQO+d3aE/2fl5yh68V9ESGlIyKbtfmjPVaHwPW80aptmDzWMvfoeWz0OTZwckQAIkQAIkQALLJHAoAfrVi79l1yUPqN/Zj6DpImn4GrfU34eDJF5KQm13wKo0xL5HX9AYBS95Po3KMVZDjPBw89iLLK+5zJuF5yYBEiABEiABElgMgUMJ0K9d/KRddz/TOUYxkLvLacnXuXiI+Mx0xDapgbzsoTEVvHFI0wS1zjFJB7jhzzSXXvghLZ+LWfPshQRIgARIgARIYMkEDiVA/+mJT9g1/wud+9GSL2M1Ty/wRYQ2Ic9nhtFuE4Rrr19iVDtM0w3sJBeax668TvG5mlPMUZMACZAACZAACRxA4FACNFhA7S904XcJ9x4IeCTwyJBoBd2MkWsgS0psNRrjbA314KPNnz3zKsXnPbDlR0iABEiABEiABI4vgUMJUPEB3bC/1IXfOr5XeIxHJqU3G5dBeYv1rIFpLLzqYQcDvIuzzcVrb1F8HuP549BIgARIgARIgATujcChBOi1i5+yG/ZnunTb93b2U/4piU/K+wPcvLEVihwNhkNcHzdQ5z7RPPIMA45O+fLg5ZMACZAACZDAiSVwKAH68sVP27P2J7r0N0PlHqdiBR++zsfBagRfzzNnB5hWCmOTo+n9SvMXX36Tls8Te8vxwkiABEiABEiABA4lQK9e/H173v5I99xNBsC3Fd3vJgGA1R4uB6Y6wU5dokofai49/yOKT96XJEACJEACJEACJ5rAoQTo85f+0J2zP1GFWEDbJOp8jcnk5+FglEadaDtRPTXWZ8zl515nhaMTfbvx4kiABEiABEiABITAoQToP1z6o2qAd7MUI6c9tFNQ77EF77k1v+ea4J2C8FAWRfPYlW+XXIokQAIkQAIkQAIkcJoIHEqAniZQvFYSIAESIAESIAESIIHFEKAAXQxH9kICJEACJEACJEACJDAnAQrQOUGxGQmQAAmQAAmQAAmQwGIIUIAuhiN7IQESIAESIAESIAESmJMABeicoNiMBEiABEiABEiABEhgMQQoQBfDkb2QAAmQAAmQAAmQAAnMSYACdE5QbEYCJEACJEACJEACJLAYAhSgi+HIXkiABEiABEiABEiABOYkQAE6Jyg2IwESIAESIAESIAESWAwBCtDFcGQvJEACJEACJEACJEACcxKgAJ0TFJuRAAmQAAmQAAmQAAkshgAF6GI4shcSIAESIAESIAESIIE5CVCAzgmKzUiABEiABEiABEiABBZDgAJ0MRzZCwmQAAmQAAmQAAmQwJwEKEDnBMVmJEACJEACJEACJEACiyFAAboYjuyFBEiABEiABEiABEhgTgIUoHOCYjMSIAESIAESIAESIIHFEKAAXQxH9kICJEACJEACJEACJDAnAQrQOUGxGQmQAAmQAAmQAAmQwGIIUIAuhiN7IQESIAESIAESIAESmJMABeicoNiMBEiABEiABEiABEhgMQQoQBfDkb2QAAmQAAmQAAmQAAnMSYACdE5QbEYCJEACJEACJEACJLAYAhSgi+HIXkiABEiABEiABEiABOYkQAE6Jyg2IwESIAESIAESIAESWAwBCtDFcGQvJEACJEACJEACJEACcxKgAJ0TFJuRAAmQAAmQAAmQAAkshgAF6GI4shcSIAESIAESIAESIIE5CVCAzgmKzUiABEiABEiABEiABBZDgAJ0MRzZCwmQAAmQAAmQAAmQwJwEKEDnBMVmJEACJEACJEACJEACiyFAAboYjuyFBEiABEiABEiABEhgTgIUoHOCYjMSIAESIAESIAESIIHFEPh/arGzwr93tjAAAAAASUVORK5CYII=;strokeWidth=2;container=0;movable=1;resizable=1;rotatable=1;deletable=1;editable=1;connectable=1;fontSize=13;" vertex="1" parent="1">
                    <mxGeometry x="1565.47" y="-943.75" width="272.89" height="147" as="geometry"/>
                </mxCell>
                <mxCell id="121" value="" style="verticalLabelPosition=bottom;aspect=fixed;html=1;verticalAlign=top;fillColor=#1ba1e2;align=center;outlineConnect=0;shape=mxgraph.fluid_power.x11820;points=[[0.5,1,0]];rounded=1;strokeColor=#006EAF;strokeWidth=2;fontFamily=Helvetica;fontSize=13;direction=west;flipH=1;flipV=0;movable=1;resizable=1;rotatable=1;deletable=1;editable=1;connectable=1;container=0;fontColor=#ffffff;" vertex="1" parent="1">
                    <mxGeometry x="1497.4599999999998" y="-826.25" width="24" height="36.06" as="geometry"/>
                </mxCell>
                <mxCell id="122" value="" style="verticalLabelPosition=bottom;aspect=fixed;html=1;verticalAlign=top;fillColor=#f0a30a;align=center;outlineConnect=0;shape=mxgraph.fluid_power.x11850;points=[[0.5,1,0]];rounded=1;strokeColor=#BD7000;strokeWidth=2;fontFamily=Helvetica;fontSize=13;fontColor=#000000;flipH=1;flipV=1;container=0;movable=1;resizable=1;rotatable=1;deletable=1;editable=1;connectable=1;" vertex="1" parent="1">
                    <mxGeometry x="1619.47" y="-827.35" width="23.92" height="36" as="geometry"/>
                </mxCell>
                <mxCell id="123" value="" style="verticalLabelPosition=bottom;aspect=fixed;html=1;verticalAlign=top;fillColor=#f0a30a;align=center;outlineConnect=0;shape=mxgraph.fluid_power.x11820;points=[[0.5,1,0]];rounded=1;strokeColor=#BD7000;strokeWidth=2;fontFamily=Helvetica;fontSize=13;fontColor=#000000;direction=west;flipH=1;flipV=1;movable=1;resizable=1;rotatable=1;deletable=1;editable=1;connectable=1;container=0;" vertex="1" parent="1">
                    <mxGeometry x="1618.4699999999998" y="-958.3100000000001" width="24" height="36.06" as="geometry"/>
                </mxCell>
                <mxCell id="124" value="" style="verticalLabelPosition=bottom;aspect=fixed;html=1;verticalAlign=top;fillColor=#f0a30a;align=center;outlineConnect=0;shape=mxgraph.fluid_power.x11850;points=[[0.5,1,0]];rounded=1;strokeColor=#BD7000;strokeWidth=2;fontFamily=Helvetica;fontSize=13;fontColor=#000000;flipH=1;flipV=1;container=0;movable=1;resizable=1;rotatable=1;deletable=1;editable=1;connectable=1;" vertex="1" parent="1">
                    <mxGeometry x="1693.47" y="-827.35" width="23.92" height="36" as="geometry"/>
                </mxCell>
                <mxCell id="125" value="" style="verticalLabelPosition=bottom;aspect=fixed;html=1;verticalAlign=top;fillColor=#f0a30a;align=center;outlineConnect=0;shape=mxgraph.fluid_power.x11820;points=[[0.5,1,0]];rounded=1;strokeColor=#BD7000;strokeWidth=2;fontFamily=Helvetica;fontSize=13;fontColor=#000000;direction=west;flipH=1;flipV=1;movable=1;resizable=1;rotatable=1;deletable=1;editable=1;connectable=1;container=0;" vertex="1" parent="1">
                    <mxGeometry x="1692.4699999999998" y="-958.3100000000001" width="24" height="36.06" as="geometry"/>
                </mxCell>
                <mxCell id="126" value="" style="verticalLabelPosition=bottom;align=center;html=1;verticalAlign=top;pointerEvents=1;dashed=0;shape=mxgraph.pid2valves.valve;valveType=gate;actuator=solenoid;rounded=1;strokeColor=#006EAF;strokeWidth=3;fontFamily=Helvetica;fontSize=13;fillColor=#1ba1e2;flipV=1;container=0;movable=1;resizable=1;rotatable=1;deletable=1;editable=1;connectable=1;fontColor=#ffffff;aspect=fixed;flipH=1;" vertex="1" parent="1">
                    <mxGeometry x="1145.01" y="-841" width="53.93" height="45.5" as="geometry"/>
                </mxCell>
                <mxCell id="127" value="" style="verticalLabelPosition=bottom;align=center;html=1;verticalAlign=top;pointerEvents=1;dashed=0;shape=mxgraph.pid2valves.valve;valveType=gate;actuator=solenoid;rounded=1;strokeColor=#B20000;strokeWidth=3;fontFamily=Helvetica;fontSize=13;fillColor=#e51400;flipV=1;container=0;movable=1;resizable=1;rotatable=1;deletable=1;editable=1;connectable=1;fontColor=#ffffff;aspect=fixed;rotation=-180;flipH=1;" vertex="1" parent="1">
                    <mxGeometry x="1207" y="-955.94" width="53.93" height="45.5" as="geometry"/>
                </mxCell>
                <mxCell id="128" value="" style="verticalLabelPosition=bottom;align=center;html=1;verticalAlign=top;pointerEvents=1;dashed=0;shape=mxgraph.pid2valves.valve;valveType=gate;actuator=solenoid;rounded=1;strokeColor=#B20000;strokeWidth=3;fontFamily=Helvetica;fontSize=13;fillColor=#e51400;flipV=1;container=0;movable=1;resizable=1;rotatable=1;deletable=1;editable=1;connectable=1;fontColor=#ffffff;aspect=fixed;rotation=-180;flipH=1;" vertex="1" parent="1">
                    <mxGeometry x="1084" y="-954.5" width="53.93" height="45.5" as="geometry"/>
                </mxCell>
                <mxCell id="129" value="" style="endArrow=none;html=1;fontFamily=Helvetica;fontSize=13;fontColor=rgb(240, 240, 240);exitX=1.019;exitY=0.691;exitDx=0;exitDy=0;exitPerimeter=0;entryX=-0.015;entryY=0.718;entryDx=0;entryDy=0;entryPerimeter=0;fillColor=#e51400;strokeColor=#B20000;movable=1;resizable=1;rotatable=1;deletable=1;editable=1;connectable=1;strokeWidth=2;" edge="1" parent="1" source="128" target="127">
                    <mxGeometry width="50" height="50" relative="1" as="geometry">
                        <mxPoint x="1144" y="-922.9199999999998" as="sourcePoint"/>
                        <mxPoint x="1196" y="-922.9399999999998" as="targetPoint"/>
                    </mxGeometry>
                </mxCell>
                <mxCell id="130" value="" style="verticalLabelPosition=bottom;align=center;html=1;verticalAlign=top;pointerEvents=1;dashed=0;shape=mxgraph.pid2valves.valve;valveType=gate;actuator=solenoid;rounded=1;strokeColor=#2D7600;strokeWidth=3;fontFamily=Helvetica;fontSize=13;fillColor=#60a917;flipV=1;container=0;movable=1;resizable=1;rotatable=1;deletable=1;editable=1;connectable=1;fontColor=#ffffff;aspect=fixed;rotation=-90;flipH=1;" vertex="1" parent="1">
                    <mxGeometry x="1412" y="-1124.55" width="53.93" height="45.5" as="geometry"/>
                </mxCell>
                <mxCell id="131" value="&lt;span style=&quot;font-size: 13px;&quot;&gt;&lt;b style=&quot;font-size: 13px;&quot;&gt;SV22&lt;/b&gt;&lt;/span&gt;" style="text;html=1;strokeColor=none;fillColor=none;align=center;verticalAlign=middle;whiteSpace=wrap;rounded=0;labelBackgroundColor=none;fontFamily=Helvetica;fontSize=13;fontColor=default;movable=1;resizable=1;rotatable=1;deletable=1;editable=1;connectable=1;" vertex="1" parent="1">
                    <mxGeometry x="1084.46" y="-983.9499999999999" width="53" height="29.45" as="geometry"/>
                </mxCell>
                <mxCell id="132" value="&lt;span style=&quot;font-size: 13px;&quot;&gt;&lt;b style=&quot;font-size: 13px;&quot;&gt;SV23&lt;/b&gt;&lt;/span&gt;" style="text;html=1;strokeColor=none;fillColor=none;align=center;verticalAlign=middle;whiteSpace=wrap;rounded=0;labelBackgroundColor=none;fontFamily=Helvetica;fontSize=13;fontColor=default;movable=1;resizable=1;rotatable=1;deletable=1;editable=1;connectable=1;" vertex="1" parent="1">
                    <mxGeometry x="1205" y="-984.6399999999999" width="53" height="29.45" as="geometry"/>
                </mxCell>
                <mxCell id="133" value="&lt;span style=&quot;font-size: 13px;&quot;&gt;&lt;b style=&quot;font-size: 13px;&quot;&gt;SV12&lt;/b&gt;&lt;/span&gt;" style="text;html=1;strokeColor=none;fillColor=none;align=center;verticalAlign=middle;whiteSpace=wrap;rounded=0;labelBackgroundColor=none;fontFamily=Helvetica;fontSize=13;fontColor=default;movable=1;resizable=1;rotatable=1;deletable=1;editable=1;connectable=1;" vertex="1" parent="1">
                    <mxGeometry x="1144.93" y="-796.7499999999999" width="53" height="29.45" as="geometry"/>
                </mxCell>
                <mxCell id="134" value="&lt;span style=&quot;font-size: 13px;&quot;&gt;&lt;b&gt;TS11&lt;/b&gt;&lt;/span&gt;" style="text;html=1;strokeColor=none;fillColor=none;align=center;verticalAlign=middle;whiteSpace=wrap;rounded=0;labelBackgroundColor=none;fontFamily=Helvetica;fontSize=13;fontColor=default;movable=1;resizable=1;rotatable=1;deletable=1;editable=1;connectable=1;" vertex="1" parent="1">
                    <mxGeometry x="1342" y="-794.4499999999999" width="53" height="29.45" as="geometry"/>
                </mxCell>
                <mxCell id="135" value="&lt;span style=&quot;font-size: 13px;&quot;&gt;&lt;b style=&quot;font-size: 13px;&quot;&gt;PS22&lt;/b&gt;&lt;/span&gt;" style="text;html=1;strokeColor=none;fillColor=none;align=center;verticalAlign=middle;whiteSpace=wrap;rounded=0;labelBackgroundColor=none;fontFamily=Helvetica;fontSize=13;fontColor=default;movable=1;resizable=1;rotatable=1;deletable=1;editable=1;connectable=1;" vertex="1" parent="1">
                    <mxGeometry x="1521.46" y="-959.9" width="53" height="29.45" as="geometry"/>
                </mxCell>
                <mxCell id="136" value="&lt;span style=&quot;font-size: 13px;&quot;&gt;&lt;b style=&quot;font-size: 13px;&quot;&gt;PS12&lt;/b&gt;&lt;/span&gt;" style="text;html=1;strokeColor=none;fillColor=none;align=center;verticalAlign=middle;whiteSpace=wrap;rounded=0;labelBackgroundColor=none;fontFamily=Helvetica;fontSize=13;fontColor=default;movable=1;resizable=1;rotatable=1;deletable=1;editable=1;connectable=1;" vertex="1" parent="1">
                    <mxGeometry x="1518" y="-816.45" width="53" height="29.45" as="geometry"/>
                </mxCell>
                <mxCell id="137" value="&lt;span style=&quot;font-size: 13px;&quot;&gt;&lt;b style=&quot;font-size: 13px;&quot;&gt;SV35&lt;/b&gt;&lt;/span&gt;" style="text;html=1;strokeColor=none;fillColor=none;align=center;verticalAlign=middle;whiteSpace=wrap;rounded=0;labelBackgroundColor=none;fontFamily=Helvetica;fontSize=13;fontColor=default;movable=1;resizable=1;rotatable=1;deletable=1;editable=1;connectable=1;" vertex="1" parent="1">
                    <mxGeometry x="1369" y="-1117.83" width="53" height="29.45" as="geometry"/>
                </mxCell>
                <mxCell id="138" value="&lt;span style=&quot;font-size: 13px;&quot;&gt;&lt;b style=&quot;font-size: 13px;&quot;&gt;PS41&lt;/b&gt;&lt;/span&gt;" style="text;html=1;strokeColor=none;fillColor=none;align=center;verticalAlign=middle;whiteSpace=wrap;rounded=0;labelBackgroundColor=none;fontFamily=Helvetica;fontSize=13;fontColor=default;movable=1;resizable=1;rotatable=1;deletable=1;editable=1;connectable=1;" vertex="1" parent="1">
                    <mxGeometry x="1602.47" y="-982.25" width="53" height="29.45" as="geometry"/>
                </mxCell>
                <mxCell id="139" value="&lt;span style=&quot;font-size: 13px;&quot;&gt;&lt;b style=&quot;font-size: 13px;&quot;&gt;PS42&lt;/b&gt;&lt;/span&gt;" style="text;html=1;strokeColor=none;fillColor=none;align=center;verticalAlign=middle;whiteSpace=wrap;rounded=0;labelBackgroundColor=none;fontFamily=Helvetica;fontSize=13;fontColor=default;movable=1;resizable=1;rotatable=1;deletable=1;editable=1;connectable=1;" vertex="1" parent="1">
                    <mxGeometry x="1677.47" y="-982.25" width="53" height="29.45" as="geometry"/>
                </mxCell>
                <mxCell id="140" value="&lt;span style=&quot;font-size: 13px;&quot;&gt;&lt;b style=&quot;font-size: 13px;&quot;&gt;TS41&lt;/b&gt;&lt;/span&gt;" style="text;html=1;strokeColor=none;fillColor=none;align=center;verticalAlign=middle;whiteSpace=wrap;rounded=0;labelBackgroundColor=none;fontFamily=Helvetica;fontSize=13;fontColor=default;movable=1;resizable=1;rotatable=1;deletable=1;editable=1;connectable=1;" vertex="1" parent="1">
                    <mxGeometry x="1605.47" y="-797.7" width="53" height="29.45" as="geometry"/>
                </mxCell>
                <mxCell id="141" value="&lt;span style=&quot;font-size: 13px;&quot;&gt;&lt;b style=&quot;font-size: 13px;&quot;&gt;TS42&lt;/b&gt;&lt;/span&gt;" style="text;html=1;strokeColor=none;fillColor=none;align=center;verticalAlign=middle;whiteSpace=wrap;rounded=0;labelBackgroundColor=none;fontFamily=Helvetica;fontSize=13;fontColor=default;movable=1;resizable=1;rotatable=1;deletable=1;editable=1;connectable=1;" vertex="1" parent="1">
                    <mxGeometry x="1680.47" y="-797.7" width="53" height="29.45" as="geometry"/>
                </mxCell>
                <mxCell id="142" value="" style="verticalLabelPosition=bottom;align=center;html=1;verticalAlign=top;pointerEvents=1;dashed=0;shape=mxgraph.pid2valves.valve;valveType=gate;actuator=solenoid;rounded=1;strokeColor=#B20000;strokeWidth=3;fontFamily=Helvetica;fontSize=13;fillColor=#e51400;flipV=1;container=0;movable=1;resizable=1;rotatable=1;deletable=1;editable=1;connectable=1;fontColor=#ffffff;aspect=fixed;rotation=-180;flipH=1;" vertex="1" parent="1">
                    <mxGeometry x="1144" y="-1161.95" width="53.93" height="45.5" as="geometry"/>
                </mxCell>
                <mxCell id="143" value="&lt;span style=&quot;font-size: 13px;&quot;&gt;&lt;b style=&quot;font-size: 13px;&quot;&gt;SV24&lt;/b&gt;&lt;/span&gt;" style="text;html=1;strokeColor=none;fillColor=none;align=center;verticalAlign=middle;whiteSpace=wrap;rounded=0;labelBackgroundColor=none;fontFamily=Helvetica;fontSize=13;fontColor=default;movable=1;resizable=1;rotatable=1;deletable=1;editable=1;connectable=1;" vertex="1" parent="1">
                    <mxGeometry x="1144.46" y="-1190" width="53" height="29.45" as="geometry"/>
                </mxCell>
                <mxCell id="144" value="" style="verticalLabelPosition=bottom;align=center;html=1;verticalAlign=top;pointerEvents=1;dashed=0;shape=mxgraph.pid2valves.valve;valveType=gate;actuator=solenoid;rounded=1;strokeColor=#006EAF;strokeWidth=3;fontFamily=Helvetica;fontSize=13;fillColor=#1ba1e2;flipV=1;container=0;movable=1;resizable=1;rotatable=1;deletable=1;editable=1;connectable=1;fontColor=#ffffff;aspect=fixed;flipH=1;" vertex="1" parent="1">
                    <mxGeometry x="1144.53" y="-634" width="53.93" height="45.5" as="geometry"/>
                </mxCell>
                <mxCell id="145" value="&lt;span style=&quot;font-size: 13px;&quot;&gt;&lt;b style=&quot;font-size: 13px;&quot;&gt;SV13&lt;/b&gt;&lt;/span&gt;" style="text;html=1;strokeColor=none;fillColor=none;align=center;verticalAlign=middle;whiteSpace=wrap;rounded=0;labelBackgroundColor=none;fontFamily=Helvetica;fontSize=13;fontColor=default;movable=1;resizable=1;rotatable=1;deletable=1;editable=1;connectable=1;" vertex="1" parent="1">
                    <mxGeometry x="1145.94" y="-590.9999999999999" width="53" height="29.45" as="geometry"/>
                </mxCell>
                <mxCell id="146" value="" style="endArrow=none;html=1;fontFamily=Helvetica;fontSize=13;fontColor=rgb(240, 240, 240);fillColor=#1ba1e2;strokeColor=#006EAF;movable=1;resizable=1;rotatable=1;deletable=1;editable=1;connectable=1;strokeWidth=2;entryX=0.5;entryY=0;entryDx=0;entryDy=0;entryPerimeter=0;exitX=0;exitY=0;exitDx=0;exitDy=0;" edge="1" parent="1" source="2" target="106">
                    <mxGeometry width="50" height="50" relative="1" as="geometry">
                        <mxPoint x="928" y="-827" as="sourcePoint"/>
                        <mxPoint x="910.31" y="-835" as="targetPoint"/>
                    </mxGeometry>
                </mxCell>
                <mxCell id="147" value="" style="endArrow=none;html=1;strokeWidth=2;fillColor=#60a917;strokeColor=#2D7600;fontSize=13;" edge="1" parent="1">
                    <mxGeometry width="50" height="50" relative="1" as="geometry">
                        <mxPoint x="1429.090000000001" y="-459.4400000000005" as="sourcePoint"/>
                        <mxPoint x="1429.539999999999" y="-793.44" as="targetPoint"/>
                    </mxGeometry>
                </mxCell>
                <mxCell id="148" value="" style="endArrow=none;html=1;fontFamily=Helvetica;fontSize=13;fontColor=rgb(240, 240, 240);exitX=0.99;exitY=0.692;exitDx=0;exitDy=0;exitPerimeter=0;fillColor=#60a917;strokeColor=#2D7600;movable=1;resizable=1;rotatable=1;deletable=1;editable=1;connectable=1;strokeWidth=2;" edge="1" parent="1">
                    <mxGeometry width="50" height="50" relative="1" as="geometry">
                        <mxPoint x="1429.0040000000008" y="-516.1700000000001" as="sourcePoint"/>
                        <mxPoint x="1429.000000000001" y="-435" as="targetPoint"/>
                    </mxGeometry>
                </mxCell>
                <mxCell id="149" value="" style="verticalLabelPosition=bottom;align=center;html=1;verticalAlign=top;pointerEvents=1;dashed=0;shape=mxgraph.pid2valves.valve;valveType=gate;actuator=solenoid;rounded=1;strokeColor=#2D7600;strokeWidth=3;fontFamily=Helvetica;fontSize=13;fillColor=#60a917;flipV=1;container=0;movable=1;resizable=1;rotatable=1;deletable=1;editable=1;connectable=1;fontColor=#ffffff;aspect=fixed;rotation=-90;flipH=1;" vertex="1" parent="1">
                    <mxGeometry x="1412" y="-673.73" width="53.93" height="45.5" as="geometry"/>
                </mxCell>
                <mxCell id="150" value="&lt;span style=&quot;font-size: 13px;&quot;&gt;&lt;b style=&quot;font-size: 13px;&quot;&gt;SV36&lt;/b&gt;&lt;/span&gt;" style="text;html=1;strokeColor=none;fillColor=none;align=center;verticalAlign=middle;whiteSpace=wrap;rounded=0;labelBackgroundColor=none;fontFamily=Helvetica;fontSize=13;fontColor=default;movable=1;resizable=1;rotatable=1;deletable=1;editable=1;connectable=1;" vertex="1" parent="1">
                    <mxGeometry x="1372" y="-665.71" width="53" height="29.45" as="geometry"/>
                </mxCell>
                <mxCell id="151" value="" style="endArrow=none;html=1;strokeWidth=2;fillColor=#60a917;strokeColor=#2D7600;fontSize=13;" edge="1" parent="1">
                    <mxGeometry width="50" height="50" relative="1" as="geometry">
                        <mxPoint x="209.99999999999818" y="-876" as="sourcePoint"/>
                        <mxPoint x="208.9999999999991" y="-434" as="targetPoint"/>
                    </mxGeometry>
                </mxCell>
                <mxCell id="152" value="" style="endArrow=none;html=1;fontFamily=Helvetica;fontSize=13;fontColor=rgb(240, 240, 240);fillColor=#e51400;strokeColor=#B20000;movable=1;resizable=1;rotatable=1;deletable=1;editable=1;connectable=1;strokeWidth=2;exitX=0;exitY=0;exitDx=0;exitDy=0;" edge="1" parent="1">
                    <mxGeometry width="50" height="50" relative="1" as="geometry">
                        <mxPoint x="1026.8100000000004" y="-923.1500000000001" as="sourcePoint"/>
                        <mxPoint x="955" y="-922.9999999999995" as="targetPoint"/>
                    </mxGeometry>
                </mxCell>
                <mxCell id="153" value="" style="endArrow=none;html=1;fontFamily=Helvetica;fontSize=13;fontColor=rgb(240, 240, 240);exitX=0;exitY=0.699;exitDx=0;exitDy=0;exitPerimeter=0;fillColor=#1ba1e2;strokeColor=#006EAF;movable=1;resizable=1;rotatable=1;deletable=1;editable=1;connectable=1;strokeWidth=2;" edge="1" parent="1">
                    <mxGeometry width="50" height="50" relative="1" as="geometry">
                        <mxPoint x="753.7879999999977" y="-744.3499999999995" as="sourcePoint"/>
                        <mxPoint x="753.7799999999997" y="-827.9999999999995" as="targetPoint"/>
                    </mxGeometry>
                </mxCell>
                <mxCell id="154" value="" style="verticalLabelPosition=bottom;align=center;html=1;verticalAlign=top;pointerEvents=1;dashed=0;shape=mxgraph.pid2valves.valve;valveType=gate;actuator=man;rounded=1;strokeColor=#006EAF;strokeWidth=2;fontFamily=Helvetica;fontSize=13;fillColor=#1ba1e2;rotation=0;shadow=0;direction=south;flipH=1;container=0;movable=1;resizable=1;rotatable=1;deletable=1;editable=1;connectable=1;fontColor=#ffffff;" vertex="1" parent="1">
                    <mxGeometry x="725" y="-769.25" width="42" height="48" as="geometry"/>
                </mxCell>
                <mxCell id="155" value="" style="verticalLabelPosition=bottom;align=center;html=1;verticalAlign=top;pointerEvents=1;dashed=0;shape=mxgraph.pid2valves.valve;valveType=gate;actuator=man;rounded=1;strokeColor=#006EAF;strokeWidth=2;fontFamily=Helvetica;fontSize=13;fillColor=#1ba1e2;flipV=1;container=0;movable=1;resizable=1;rotatable=1;deletable=1;editable=1;connectable=1;fontColor=#ffffff;" vertex="1" parent="1">
                    <mxGeometry x="866.2" y="-840.25" width="48" height="42" as="geometry"/>
                </mxCell>
                <mxCell id="156" value="" style="verticalLabelPosition=bottom;aspect=fixed;html=1;verticalAlign=top;fillColor=#1ba1e2;align=center;outlineConnect=0;shape=mxgraph.fluid_power.x11910;points=[[0.5,0,0],[0.5,1,0]];rounded=1;strokeColor=#006EAF;strokeWidth=2;fontFamily=Helvetica;fontSize=13;direction=south;container=0;movable=1;resizable=1;rotatable=1;deletable=1;editable=1;connectable=1;fontColor=#ffffff;" vertex="1" parent="1">
                    <mxGeometry x="805" y="-839.64" width="47.23" height="23.5" as="geometry"/>
                </mxCell>
                <mxCell id="157" value="&lt;font style=&quot;font-size: 13px;&quot;&gt;&lt;b style=&quot;font-size: 13px;&quot;&gt;FM11&lt;/b&gt;&lt;/font&gt;" style="text;html=1;strokeColor=none;fillColor=none;align=center;verticalAlign=middle;whiteSpace=wrap;rounded=0;labelBackgroundColor=none;fontFamily=Helvetica;fontSize=13;fontColor=default;movable=1;resizable=1;rotatable=1;deletable=1;editable=1;connectable=1;" vertex="1" parent="1">
                    <mxGeometry x="804" y="-819.64" width="53" height="29.45" as="geometry"/>
                </mxCell>
                <mxCell id="158" value="" style="endArrow=none;html=1;fontFamily=Helvetica;fontSize=13;fontColor=rgb(240, 240, 240);fillColor=#1ba1e2;strokeColor=#006EAF;movable=1;resizable=1;rotatable=1;deletable=1;editable=1;connectable=1;strokeWidth=2;exitX=0.5;exitY=0;exitDx=0;exitDy=0;exitPerimeter=0;" edge="1" parent="1" source="156">
                    <mxGeometry width="50" height="50" relative="1" as="geometry">
                        <mxPoint x="772" y="-855" as="sourcePoint"/>
                        <mxPoint x="865" y="-827.9999999999995" as="targetPoint"/>
                    </mxGeometry>
                </mxCell>
                <mxCell id="159" value="" style="verticalLabelPosition=bottom;aspect=fixed;html=1;verticalAlign=top;fillColor=#e51400;align=center;outlineConnect=0;shape=mxgraph.fluid_power.x11910;points=[[0.5,0,0],[0.5,1,0]];rounded=1;strokeColor=#B20000;strokeWidth=2;fontFamily=Helvetica;fontSize=13;fontColor=#ffffff;direction=south;movable=1;resizable=1;rotatable=1;deletable=1;editable=1;connectable=1;container=0;" vertex="1" parent="1">
                    <mxGeometry x="868" y="-934.95" width="47.23" height="23.5" as="geometry"/>
                </mxCell>
                <mxCell id="160" value="&lt;span style=&quot;font-size: 13px;&quot;&gt;&lt;b style=&quot;font-size: 13px;&quot;&gt;FM21&lt;/b&gt;&lt;/span&gt;" style="text;html=1;strokeColor=none;fillColor=none;align=center;verticalAlign=middle;whiteSpace=wrap;rounded=0;labelBackgroundColor=none;fontFamily=Helvetica;fontSize=13;fontColor=default;" vertex="1" parent="1">
                    <mxGeometry x="866" y="-962.26" width="53" height="29.45" as="geometry"/>
                </mxCell>
                <mxCell id="161" value="" style="endArrow=none;html=1;fontFamily=Helvetica;fontSize=13;fontColor=rgb(240, 240, 240);fillColor=#e51400;strokeColor=#B20000;movable=1;resizable=1;rotatable=1;deletable=1;editable=1;connectable=1;strokeWidth=2;exitX=0.5;exitY=1;exitDx=0;exitDy=0;exitPerimeter=0;entryX=0.5;entryY=0;entryDx=0;entryDy=0;entryPerimeter=0;" edge="1" parent="1" source="100" target="159">
                    <mxGeometry width="50" height="50" relative="1" as="geometry">
                        <mxPoint x="1016.4099999999994" y="-900.94" as="sourcePoint"/>
                        <mxPoint x="864" y="-920" as="targetPoint"/>
                    </mxGeometry>
                </mxCell>
                <mxCell id="162" value="" style="verticalLabelPosition=bottom;align=center;html=1;verticalAlign=top;pointerEvents=1;dashed=0;shape=mxgraph.pid2valves.valve;valveType=gate;actuator=man;rounded=1;strokeColor=#006EAF;strokeWidth=2;fontFamily=Helvetica;fontSize=13;fillColor=#1ba1e2;rotation=0;shadow=0;direction=south;flipH=1;container=0;movable=1;resizable=1;rotatable=1;deletable=1;editable=1;connectable=1;fontColor=#ffffff;" vertex="1" parent="1">
                    <mxGeometry x="635" y="-745.45" width="42" height="48" as="geometry"/>
                </mxCell>
                <mxCell id="163" value="&lt;span style=&quot;font-size: 13px;&quot;&gt;&lt;b style=&quot;font-size: 13px;&quot;&gt;MV23&lt;/b&gt;&lt;/span&gt;" style="text;html=1;strokeColor=none;fillColor=none;align=center;verticalAlign=middle;whiteSpace=wrap;rounded=0;labelBackgroundColor=none;fontFamily=Helvetica;fontSize=13;fontColor=default;" vertex="1" parent="1">
                    <mxGeometry x="802.11" y="-973.8" width="53" height="29.45" as="geometry"/>
                </mxCell>
                <mxCell id="164" value="" style="verticalLabelPosition=bottom;align=center;html=1;verticalAlign=top;pointerEvents=1;dashed=0;shape=mxgraph.pid2valves.valve;valveType=gate;actuator=man;rounded=1;strokeColor=#B20000;strokeWidth=2;fontFamily=Helvetica;fontSize=13;fontColor=#ffffff;fillColor=#e51400;movable=1;resizable=1;rotatable=1;deletable=1;editable=1;connectable=1;container=0;" vertex="1" parent="1">
                    <mxGeometry x="805.11" y="-952.44" width="48" height="42" as="geometry"/>
                </mxCell>
                <mxCell id="165" value="" style="verticalLabelPosition=bottom;aspect=fixed;html=1;verticalAlign=top;fillColor=#1ba1e2;align=center;outlineConnect=0;shape=mxgraph.fluid_power.x12420;points=[[0.5,0,0],[0,1,0],[1,1,0]];rotation=-90;strokeWidth=2;fontColor=#ffffff;strokeColor=#006EAF;" vertex="1" parent="1">
                    <mxGeometry x="772.04" y="-688" width="20.41" height="31" as="geometry"/>
                </mxCell>
                <mxCell id="166" value="&lt;font style=&quot;font-size: 13px;&quot;&gt;&lt;font color=&quot;#000000&quot; style=&quot;font-size: 13px;&quot;&gt;&lt;b style=&quot;&quot;&gt;LOX fill tank&lt;br style=&quot;&quot;&gt;0.75L - 0bar&lt;/b&gt;&lt;/font&gt;&lt;br style=&quot;font-size: 13px;&quot;&gt;&lt;/font&gt;" style="rounded=1;arcSize=50;whiteSpace=wrap;html=1;perimeterSpacing=1;strokeWidth=2;flipV=0;flipH=0;direction=east;container=0;fillColor=#1ba1e2;strokeColor=#006EAF;movable=1;resizable=1;rotatable=1;deletable=1;editable=1;connectable=1;fontColor=#ffffff;fontSize=13;" vertex="1" parent="1">
                    <mxGeometry x="676.22" y="-694.73" width="94" height="43.45" as="geometry"/>
                </mxCell>
                <mxCell id="167" value="" style="verticalLabelPosition=bottom;aspect=fixed;html=1;verticalAlign=top;fillColor=#60a917;align=center;outlineConnect=0;shape=mxgraph.fluid_power.x11820;points=[[0.5,1,0]];rounded=1;strokeColor=#2D7600;strokeWidth=2;fontFamily=Helvetica;fontSize=13;fontColor=#ffffff;direction=south;flipH=1;flipV=0;movable=1;resizable=1;rotatable=1;deletable=1;editable=1;connectable=1;container=0;" vertex="1" parent="1">
                    <mxGeometry x="-87.00000000000006" y="-1158" width="36.06" height="24" as="geometry"/>
                </mxCell>
                <mxCell id="168" value="&lt;font style=&quot;font-size: 13px;&quot;&gt;&lt;b style=&quot;font-size: 13px;&quot;&gt;PS31&lt;/b&gt;&lt;/font&gt;" style="text;html=1;strokeColor=none;fillColor=none;align=center;verticalAlign=middle;whiteSpace=wrap;rounded=0;labelBackgroundColor=none;fontFamily=Helvetica;fontSize=13;fontColor=default;" vertex="1" parent="1">
                    <mxGeometry x="-137" y="-1160.72" width="53" height="29.45" as="geometry"/>
                </mxCell>
                <mxCell id="169" value="" style="verticalLabelPosition=bottom;aspect=fixed;html=1;verticalAlign=top;fillColor=#60a917;align=center;outlineConnect=0;shape=mxgraph.fluid_power.x11850;points=[[0.5,1,0]];rounded=1;strokeColor=#2D7600;strokeWidth=2;fontFamily=Helvetica;fontSize=13;flipH=1;flipV=1;container=0;movable=1;resizable=1;rotatable=1;deletable=1;editable=1;connectable=1;fontColor=#ffffff;rotation=-90;" vertex="1" parent="1">
                    <mxGeometry x="-28.00000000000003" y="-1164" width="23.92" height="36" as="geometry"/>
                </mxCell>
            </root>
        </mxGraphModel>
    </diagram>
</mxfile>